<svg xmlns:xlink="http://www.w3.org/1999/xlink" xmlns="http://www.w3.org/2000/svg" viewBox="-853.5,-714.5,1707,1379"><text x="0" y="-684.5" text-anchor="middle" style="font-size: 24px; font-weight: bold;">Control Flow of 'disassembler-8k'</text><defs><marker id="arrowhead" viewBox="0 -5 10 10" refX="10" refY="0" markerWidth="6" markerHeight="6" orient="auto"><path d="M0,-5L10,0L0,5" fill="black"/></marker></defs><g><path d="M-464.094,417.872L-399.863,350.729C-335.632,283.586,-207.169,149.3,-227.376,43.374C-247.582,-62.552,-416.457,-140.117,-500.895,-178.9L-585.333,-217.683" fill="none" stroke-width="1.5" stroke="blue" opacity="0.7" marker-end="url(#arrowhead)"/><path d="M-497.433,377.572L-428.062,316.642C-358.691,255.712,-219.949,133.852,-234.599,34.643C-249.249,-64.567,-417.291,-141.125,-501.312,-179.404L-585.333,-217.683" fill="none" stroke-width="1.5" stroke="purple" opacity="0.7" marker-end="url(#arrowhead)"/><path d="M-527.283,334.624L-453.31,280.315C-379.337,226.006,-231.392,117.388,-241.067,25.337C-250.742,-66.714,-418.037,-142.199,-501.685,-179.941L-585.333,-217.683" fill="none" stroke-width="1.5" stroke="blue" opacity="0.7" marker-end="url(#arrowhead)"/><path d="M-527.283,334.624L-453.19,286.061C-379.097,237.498,-230.91,140.373,-238.98,124.936C-247.05,109.499,-411.377,175.751,-493.54,208.877L-575.704,242.003" fill="none" stroke-width="1.5" stroke="green" opacity="0.7" marker-end="url(#arrowhead)"/><path d="M-553.434,289.328L-473.457,250.414C-393.479,211.5,-233.525,133.671,-212.536,161.323C-191.547,188.975,-309.523,322.108,-368.511,388.675L-427.5,455.241" fill="none" stroke-width="1.5" stroke="blue" opacity="0.7" marker-end="url(#arrowhead)"/><path d="M-575.704,242.003L-494.549,206.477C-413.395,170.951,-251.086,99.898,-256.469,83.332C-261.852,66.765,-434.926,104.685,-521.463,123.645L-608,142.605" fill="none" stroke-width="1.5" stroke="purple" opacity="0.7" marker-end="url(#arrowhead)"/><path d="M-585.333,-217.683L-502.898,-184.287C-420.464,-150.891,-255.596,-84.099,-262.101,-49.998C-268.606,-15.898,-446.484,-14.488,-535.424,-13.783L-624.363,-13.079" fill="none" stroke-width="1.5" stroke="green" opacity="0.7" marker-end="url(#arrowhead)"/><path d="M-565.064,-265.899L-483.965,-229.882C-402.866,-193.865,-240.667,-121.832,-226.688,-143.86C-212.708,-165.889,-346.947,-281.98,-414.066,-340.026L-481.186,-398.071" fill="none" stroke-width="1.5" stroke="green" opacity="0.7" marker-end="url(#arrowhead)"/><path d="M-512.808,-356.411L-439.094,-295.773C-365.379,-235.136,-217.951,-113.862,-203.733,21.413C-189.515,156.688,-308.507,305.965,-368.004,380.603L-427.5,455.241" fill="none" stroke-width="1.5" stroke="blue" opacity="0.7" marker-end="url(#arrowhead)"/><path d="M-481.186,-398.071L-414.671,-338.165C-348.156,-278.258,-215.126,-158.445,-237.169,-111.603C-259.211,-64.761,-436.325,-90.89,-524.881,-103.955L-613.438,-117.02" fill="none" stroke-width="1.5" stroke="green" opacity="0.7" marker-end="url(#arrowhead)"/><path d="M-446.188,-436.94L-385.069,-371.041C-323.949,-305.142,-201.711,-173.345,-229.586,-120.025C-257.461,-66.705,-435.45,-91.862,-524.444,-104.441L-613.438,-117.02" fill="none" stroke-width="1.5" stroke="green" opacity="0.7" marker-end="url(#arrowhead)"/><path d="M-367.072,-505.231L-313.953,-434.333C-260.833,-363.436,-154.595,-221.641,-139.695,-230.664C-124.796,-239.687,-201.235,-399.53,-239.455,-479.451L-277.675,-559.372" fill="none" stroke-width="1.5" stroke="blue" opacity="0.7" marker-end="url(#arrowhead)"/><path d="M-277.675,-559.372L-237.123,-480.609C-196.571,-401.845,-115.467,-244.318,-99.271,-250.731C-83.076,-257.143,-131.788,-427.494,-156.144,-512.67L-180.5,-597.846" fill="none" stroke-width="1.5" stroke="blue" opacity="0.7" marker-end="url(#arrowhead)"/><path d="M-277.675,-559.372L-242.671,-473.299C-207.667,-387.226,-137.66,-215.08,-195.442,-124.031C-253.223,-32.982,-438.793,-23.03,-531.578,-18.054L-624.363,-13.079" fill="none" stroke-width="1.5" stroke="green" opacity="0.7" marker-end="url(#arrowhead)"/><path d="M-229.894,-580.645L-202.12,-492.592C-174.346,-404.539,-118.798,-228.432,-182.722,-151.161C-246.646,-73.89,-430.042,-95.455,-521.74,-106.237L-613.438,-117.02" fill="none" stroke-width="1.5" stroke="green" opacity="0.7" marker-end="url(#arrowhead)"/><path d="M-129.841,-610.853L-117.492,-518.143C-105.143,-425.432,-80.444,-240.011,-161.044,-157.706C-241.643,-75.4,-427.541,-96.21,-520.49,-106.615L-613.438,-117.02" fill="none" stroke-width="1.5" stroke="green" opacity="0.7" marker-end="url(#arrowhead)"/><path d="M-78.271,-619.576L-73.872,-525.52C-69.473,-431.465,-60.676,-243.355,-149.87,-159.596C-239.065,-75.836,-426.252,-96.428,-519.845,-106.724L-613.438,-117.02" fill="none" stroke-width="1.5" stroke="green" opacity="0.7" marker-end="url(#arrowhead)"/><path d="M-26.151,-623.952L-29.924,-527.923C-33.697,-431.894,-41.243,-239.836,-140.945,-138.023C-240.647,-36.211,-432.505,-24.645,-528.434,-18.862L-624.363,-13.079" fill="none" stroke-width="1.5" stroke="green" opacity="0.7" marker-end="url(#arrowhead)"/></g><g transform="translate(524.5, -604.5)"><rect x="0" y="0" width="12" height="12" fill="blue"/><rect x="0" y="20" width="12" height="12" fill="green"/><rect x="0" y="40" width="12" height="12" fill="purple"/><rect x="0" y="60" width="12" height="12" fill="yellow"/><text x="20" y="10" text-anchor="start" style="font-size: 14px;">GOTO</text><text x="20" y="30" text-anchor="start" style="font-size: 14px;">GOSUB</text><text x="20" y="50" text-anchor="start" style="font-size: 14px;">THEN</text><text x="20" y="70" text-anchor="start" style="font-size: 14px;">ELSE</text></g><g><path d="M-464.094,417.872L-399.863,350.729C-335.632,283.586,-207.169,149.3,-227.376,43.374C-247.582,-62.552,-416.457,-140.117,-500.895,-178.9L-585.333,-217.683" fill="none" stroke-width="1.5" stroke="blue" opacity="0.7"/><path d="M-497.433,377.572L-428.062,316.642C-358.691,255.712,-219.949,133.852,-234.599,34.643C-249.249,-64.567,-417.291,-141.125,-501.312,-179.404L-585.333,-217.683" fill="none" stroke-width="1.5" stroke="purple" opacity="0.7"/><path d="M-527.283,334.624L-453.31,280.315C-379.337,226.006,-231.392,117.388,-241.067,25.337C-250.742,-66.714,-418.037,-142.199,-501.685,-179.941L-585.333,-217.683" fill="none" stroke-width="1.5" stroke="blue" opacity="0.7"/><path d="M-527.283,334.624L-453.19,286.061C-379.097,237.498,-230.91,140.373,-238.98,124.936C-247.05,109.499,-411.377,175.751,-493.54,208.877L-575.704,242.003" fill="none" stroke-width="1.5" stroke="green" opacity="0.7"/><path d="M-553.434,289.328L-473.457,250.414C-393.479,211.5,-233.525,133.671,-212.536,161.323C-191.547,188.975,-309.523,322.108,-368.511,388.675L-427.5,455.241" fill="none" stroke-width="1.5" stroke="blue" opacity="0.7"/><path d="M-575.704,242.003L-494.549,206.477C-413.395,170.951,-251.086,99.898,-256.469,83.332C-261.852,66.765,-434.926,104.685,-521.463,123.645L-608,142.605" fill="none" stroke-width="1.5" stroke="purple" opacity="0.7"/><path d="M-585.333,-217.683L-502.898,-184.287C-420.464,-150.891,-255.596,-84.099,-262.101,-49.998C-268.606,-15.898,-446.484,-14.488,-535.424,-13.783L-624.363,-13.079" fill="none" stroke-width="1.5" stroke="green" opacity="0.7"/><path d="M-565.064,-265.899L-483.965,-229.882C-402.866,-193.865,-240.667,-121.832,-226.688,-143.86C-212.708,-165.889,-346.947,-281.98,-414.066,-340.026L-481.186,-398.071" fill="none" stroke-width="1.5" stroke="green" opacity="0.7"/><path d="M-512.808,-356.411L-439.094,-295.773C-365.379,-235.136,-217.951,-113.862,-203.733,21.413C-189.515,156.688,-308.507,305.965,-368.004,380.603L-427.5,455.241" fill="none" stroke-width="1.5" stroke="blue" opacity="0.7"/><path d="M-481.186,-398.071L-414.671,-338.165C-348.156,-278.258,-215.126,-158.445,-237.169,-111.603C-259.211,-64.761,-436.325,-90.89,-524.881,-103.955L-613.438,-117.02" fill="none" stroke-width="1.5" stroke="green" opacity="0.7"/><path d="M-446.188,-436.94L-385.069,-371.041C-323.949,-305.142,-201.711,-173.345,-229.586,-120.025C-257.461,-66.705,-435.45,-91.862,-524.444,-104.441L-613.438,-117.02" fill="none" stroke-width="1.5" stroke="green" opacity="0.7"/><path d="M-367.072,-505.231L-313.953,-434.333C-260.833,-363.436,-154.595,-221.641,-139.695,-230.664C-124.796,-239.687,-201.235,-399.53,-239.455,-479.451L-277.675,-559.372" fill="none" stroke-width="1.5" stroke="blue" opacity="0.7"/><path d="M-277.675,-559.372L-237.123,-480.609C-196.571,-401.845,-115.467,-244.318,-99.271,-250.731C-83.076,-257.143,-131.788,-427.494,-156.144,-512.67L-180.5,-597.846" fill="none" stroke-width="1.5" stroke="blue" opacity="0.7"/><path d="M-277.675,-559.372L-242.671,-473.299C-207.667,-387.226,-137.66,-215.08,-195.442,-124.031C-253.223,-32.982,-438.793,-23.03,-531.578,-18.054L-624.363,-13.079" fill="none" stroke-width="1.5" stroke="green" opacity="0.7"/><path d="M-229.894,-580.645L-202.12,-492.592C-174.346,-404.539,-118.798,-228.432,-182.722,-151.161C-246.646,-73.89,-430.042,-95.455,-521.74,-106.237L-613.438,-117.02" fill="none" stroke-width="1.5" stroke="green" opacity="0.7"/><path d="M-129.841,-610.853L-117.492,-518.143C-105.143,-425.432,-80.444,-240.011,-161.044,-157.706C-241.643,-75.4,-427.541,-96.21,-520.49,-106.615L-613.438,-117.02" fill="none" stroke-width="1.5" stroke="green" opacity="0.7"/><path d="M-78.271,-619.576L-73.872,-525.52C-69.473,-431.465,-60.676,-243.355,-149.87,-159.596C-239.065,-75.836,-426.252,-96.428,-519.845,-106.724L-613.438,-117.02" fill="none" stroke-width="1.5" stroke="green" opacity="0.7"/><path d="M-26.151,-623.952L-29.924,-527.923C-33.697,-431.894,-41.243,-239.836,-140.945,-138.023C-240.647,-36.211,-432.505,-24.645,-528.434,-18.862L-624.363,-13.079" fill="none" stroke-width="1.5" stroke="green" opacity="0.7"/></g><g><text transform="&#xA;        rotate(-87.6)&#xA;        translate(632.5,0)&#xA;        &#xA;      " text-anchor="start">10</text><text transform="&#xA;        rotate(-82.8)&#xA;        translate(632.5,0)&#xA;        &#xA;      " text-anchor="start">100</text><text transform="&#xA;        rotate(-78)&#xA;        translate(632.5,0)&#xA;        &#xA;      " text-anchor="start">102</text><text transform="&#xA;        rotate(-73.2)&#xA;        translate(632.5,0)&#xA;        &#xA;      " text-anchor="start">104</text><text transform="&#xA;        rotate(-68.4)&#xA;        translate(632.5,0)&#xA;        &#xA;      " text-anchor="start">106</text><text transform="&#xA;        rotate(-63.6)&#xA;        translate(632.5,0)&#xA;        &#xA;      " text-anchor="start">108</text><text transform="&#xA;        rotate(-58.8)&#xA;        translate(632.5,0)&#xA;        &#xA;      " text-anchor="start">110</text><text transform="&#xA;        rotate(-54)&#xA;        translate(632.5,0)&#xA;        &#xA;      " text-anchor="start">112</text><text transform="&#xA;        rotate(-49.2)&#xA;        translate(632.5,0)&#xA;        &#xA;      " text-anchor="start">114</text><text transform="&#xA;        rotate(-44.4)&#xA;        translate(632.5,0)&#xA;        &#xA;      " text-anchor="start">116</text><text transform="&#xA;        rotate(-39.599999999999994)&#xA;        translate(632.5,0)&#xA;        &#xA;      " text-anchor="start">118</text><text transform="&#xA;        rotate(-34.800000000000004)&#xA;        translate(632.5,0)&#xA;        &#xA;      " text-anchor="start">120</text><text transform="&#xA;        rotate(-30)&#xA;        translate(632.5,0)&#xA;        &#xA;      " text-anchor="start">122</text><text transform="&#xA;        rotate(-25.200000000000003)&#xA;        translate(632.5,0)&#xA;        &#xA;      " text-anchor="start">124</text><text transform="&#xA;        rotate(-20.400000000000006)&#xA;        translate(632.5,0)&#xA;        &#xA;      " text-anchor="start">126</text><text transform="&#xA;        rotate(-15.599999999999994)&#xA;        translate(632.5,0)&#xA;        &#xA;      " text-anchor="start">128</text><text transform="&#xA;        rotate(-10.799999999999997)&#xA;        translate(632.5,0)&#xA;        &#xA;      " text-anchor="start">130</text><text transform="&#xA;        rotate(-6)&#xA;        translate(632.5,0)&#xA;        &#xA;      " text-anchor="start">200</text><text transform="&#xA;        rotate(-1.2000000000000028)&#xA;        translate(632.5,0)&#xA;        &#xA;      " text-anchor="start">202</text><text transform="&#xA;        rotate(3.6000000000000085)&#xA;        translate(632.5,0)&#xA;        &#xA;      " text-anchor="start">204</text><text transform="&#xA;        rotate(8.399999999999991)&#xA;        translate(632.5,0)&#xA;        &#xA;      " text-anchor="start">206</text><text transform="&#xA;        rotate(13.200000000000003)&#xA;        translate(632.5,0)&#xA;        &#xA;      " text-anchor="start">208</text><text transform="&#xA;        rotate(18)&#xA;        translate(632.5,0)&#xA;        &#xA;      " text-anchor="start">210</text><text transform="&#xA;        rotate(22.80000000000001)&#xA;        translate(632.5,0)&#xA;        &#xA;      " text-anchor="start">212</text><text transform="&#xA;        rotate(27.599999999999994)&#xA;        translate(632.5,0)&#xA;        &#xA;      " text-anchor="start">214</text><text transform="&#xA;        rotate(32.400000000000006)&#xA;        translate(632.5,0)&#xA;        &#xA;      " text-anchor="start">300</text><text transform="&#xA;        rotate(37.2)&#xA;        translate(632.5,0)&#xA;        &#xA;      " text-anchor="start">302</text><text transform="&#xA;        rotate(42)&#xA;        translate(632.5,0)&#xA;        &#xA;      " text-anchor="start">304</text><text transform="&#xA;        rotate(46.80000000000001)&#xA;        translate(632.5,0)&#xA;        &#xA;      " text-anchor="start">306</text><text transform="&#xA;        rotate(51.599999999999994)&#xA;        translate(632.5,0)&#xA;        &#xA;      " text-anchor="start">308</text><text transform="&#xA;        rotate(56.400000000000006)&#xA;        translate(632.5,0)&#xA;        &#xA;      " text-anchor="start">310</text><text transform="&#xA;        rotate(61.19999999999999)&#xA;        translate(632.5,0)&#xA;        &#xA;      " text-anchor="start">312</text><text transform="&#xA;        rotate(66)&#xA;        translate(632.5,0)&#xA;        &#xA;      " text-anchor="start">314</text><text transform="&#xA;        rotate(70.79999999999998)&#xA;        translate(632.5,0)&#xA;        &#xA;      " text-anchor="start">316</text><text transform="&#xA;        rotate(75.6)&#xA;        translate(632.5,0)&#xA;        &#xA;      " text-anchor="start">318</text><text transform="&#xA;        rotate(80.4)&#xA;        translate(632.5,0)&#xA;        &#xA;      " text-anchor="start">320</text><text transform="&#xA;        rotate(85.20000000000002)&#xA;        translate(632.5,0)&#xA;        &#xA;      " text-anchor="start">322</text><text transform="&#xA;        rotate(90)&#xA;        translate(632.5,0)&#xA;        rotate(180)&#xA;      " text-anchor="end">324</text><text transform="&#xA;        rotate(94.79999999999998)&#xA;        translate(632.5,0)&#xA;        rotate(180)&#xA;      " text-anchor="end">326</text><text transform="&#xA;        rotate(99.6)&#xA;        translate(632.5,0)&#xA;        rotate(180)&#xA;      " text-anchor="end">328</text><text transform="&#xA;        rotate(104.4)&#xA;        translate(632.5,0)&#xA;        rotate(180)&#xA;      " text-anchor="end">330</text><text transform="&#xA;        rotate(109.20000000000002)&#xA;        translate(632.5,0)&#xA;        rotate(180)&#xA;      " text-anchor="end">400</text><text transform="&#xA;        rotate(114)&#xA;        translate(632.5,0)&#xA;        rotate(180)&#xA;      " text-anchor="end">500</text><text transform="&#xA;        rotate(118.79999999999998)&#xA;        translate(632.5,0)&#xA;        rotate(180)&#xA;      " text-anchor="end">510</text><text transform="&#xA;        rotate(123.60000000000002)&#xA;        translate(632.5,0)&#xA;        rotate(180)&#xA;      " text-anchor="end">515</text><text transform="&#xA;        rotate(128.4)&#xA;        translate(632.5,0)&#xA;        rotate(180)&#xA;      " text-anchor="end">530</text><text transform="&#xA;        rotate(133.2)&#xA;        translate(632.5,0)&#xA;        rotate(180)&#xA;      " text-anchor="end">600</text><text transform="&#xA;        rotate(138)&#xA;        translate(632.5,0)&#xA;        rotate(180)&#xA;      " text-anchor="end">602</text><text transform="&#xA;        rotate(142.79999999999998)&#xA;        translate(632.5,0)&#xA;        rotate(180)&#xA;      " text-anchor="end">605</text><text transform="&#xA;        rotate(147.60000000000002)&#xA;        translate(632.5,0)&#xA;        rotate(180)&#xA;      " text-anchor="end">610</text><text transform="&#xA;        rotate(152.4)&#xA;        translate(632.5,0)&#xA;        rotate(180)&#xA;      " text-anchor="end">690</text><text transform="&#xA;        rotate(157.2)&#xA;        translate(632.5,0)&#xA;        rotate(180)&#xA;      " text-anchor="end">800</text><text transform="&#xA;        rotate(161.99999999999997)&#xA;        translate(632.5,0)&#xA;        rotate(180)&#xA;      " text-anchor="end">805</text><text transform="&#xA;        rotate(166.8)&#xA;        translate(632.5,0)&#xA;        rotate(180)&#xA;      " text-anchor="end">810</text><text transform="&#xA;        rotate(171.60000000000002)&#xA;        translate(632.5,0)&#xA;        rotate(180)&#xA;      " text-anchor="end">820</text><text transform="&#xA;        rotate(176.39999999999998)&#xA;        translate(632.5,0)&#xA;        rotate(180)&#xA;      " text-anchor="end">830</text><text transform="&#xA;        rotate(181.2)&#xA;        translate(632.5,0)&#xA;        rotate(180)&#xA;      " text-anchor="end">900</text><text transform="&#xA;        rotate(186)&#xA;        translate(632.5,0)&#xA;        rotate(180)&#xA;      " text-anchor="end">910</text><text transform="&#xA;        rotate(190.8)&#xA;        translate(632.5,0)&#xA;        rotate(180)&#xA;      " text-anchor="end">950</text><text transform="&#xA;        rotate(195.60000000000002)&#xA;        translate(632.5,0)&#xA;        rotate(180)&#xA;      " text-anchor="end">960</text><text transform="&#xA;        rotate(200.39999999999998)&#xA;        translate(632.5,0)&#xA;        rotate(180)&#xA;      " text-anchor="end">1000</text><text transform="&#xA;        rotate(205.2)&#xA;        translate(632.5,0)&#xA;        rotate(180)&#xA;      " text-anchor="end">1005</text><text transform="&#xA;        rotate(210)&#xA;        translate(632.5,0)&#xA;        rotate(180)&#xA;      " text-anchor="end">1010</text><text transform="&#xA;        rotate(214.8)&#xA;        translate(632.5,0)&#xA;        rotate(180)&#xA;      " text-anchor="end">1020</text><text transform="&#xA;        rotate(219.60000000000002)&#xA;        translate(632.5,0)&#xA;        rotate(180)&#xA;      " text-anchor="end">1100</text><text transform="&#xA;        rotate(224.39999999999998)&#xA;        translate(632.5,0)&#xA;        rotate(180)&#xA;      " text-anchor="end">1200</text><text transform="&#xA;        rotate(229.20000000000005)&#xA;        translate(632.5,0)&#xA;        rotate(180)&#xA;      " text-anchor="end">1205</text><text transform="&#xA;        rotate(234)&#xA;        translate(632.5,0)&#xA;        rotate(180)&#xA;      " text-anchor="end">1210</text><text transform="&#xA;        rotate(238.8)&#xA;        translate(632.5,0)&#xA;        rotate(180)&#xA;      " text-anchor="end">1215</text><text transform="&#xA;        rotate(243.59999999999997)&#xA;        translate(632.5,0)&#xA;        rotate(180)&#xA;      " text-anchor="end">1220</text><text transform="&#xA;        rotate(248.39999999999998)&#xA;        translate(632.5,0)&#xA;        rotate(180)&#xA;      " text-anchor="end">1230</text><text transform="&#xA;        rotate(253.2)&#xA;        translate(632.5,0)&#xA;        rotate(180)&#xA;      " text-anchor="end">1240</text><text transform="&#xA;        rotate(258)&#xA;        translate(632.5,0)&#xA;        rotate(180)&#xA;      " text-anchor="end">1300</text><text transform="&#xA;        rotate(262.8)&#xA;        translate(632.5,0)&#xA;        rotate(180)&#xA;      " text-anchor="end">1310</text><text transform="&#xA;        rotate(267.59999999999997)&#xA;        translate(632.5,0)&#xA;        rotate(180)&#xA;      " text-anchor="end">1320</text></g></svg>