<svg xmlns:xlink="http://www.w3.org/1999/xlink" xmlns="http://www.w3.org/2000/svg" viewBox="-853.5,-714.5,1707,1379"><text x="0" y="-684.5" text-anchor="middle" style="font-size: 24px; font-weight: bold;">Control Flow of 'slalom2'</text><defs><marker id="arrowhead" viewBox="0 -5 10 10" refX="10" refY="0" markerWidth="6" markerHeight="6" orient="auto"><path d="M0,-5L10,0L0,5" fill="black"/></marker></defs><g><path d="M358.198,-511.56L308.166,-426.863C258.133,-342.166,158.068,-172.772,167.562,-9.759C177.057,153.254,296.111,309.885,355.638,388.201L415.165,466.517" fill="none" stroke-width="1.5" stroke="blue" opacity="0.7" marker-end="url(#arrowhead)"/><path d="M549.686,-296.388L472.483,-252.715C395.28,-209.042,240.874,-121.697,249.796,-99.238C258.719,-76.779,430.97,-119.206,517.095,-140.419L603.221,-161.632" fill="none" stroke-width="1.5" stroke="purple" opacity="0.7" marker-end="url(#arrowhead)"/><path d="M592.802,-196.433L508.952,-164.129C425.102,-131.825,257.402,-67.218,259.138,-7.54C260.875,52.137,432.048,106.885,517.634,134.259L603.221,161.632" fill="none" stroke-width="1.5" stroke="purple" opacity="0.7" marker-end="url(#arrowhead)"/><path d="M617.906,90.51L528.166,71.036C438.425,51.563,258.943,12.616,229.557,-76.067C200.171,-164.75,320.879,-303.169,381.234,-372.379L441.588,-441.588" fill="none" stroke-width="1.5" stroke="purple" opacity="0.7" marker-end="url(#arrowhead)"/><path d="M611.598,126.285L522.83,101.296C434.062,76.307,256.525,26.33,228.19,-68.316C199.855,-162.961,320.722,-302.275,381.155,-371.931L441.588,-441.588" fill="none" stroke-width="1.5" stroke="blue" opacity="0.7" marker-end="url(#arrowhead)"/><path d="M592.802,196.433L508.056,170.248C423.309,144.062,253.817,91.692,243.604,113.594C233.39,135.497,382.456,231.672,456.989,279.76L531.522,327.848" fill="none" stroke-width="1.5" stroke="purple" opacity="0.7" marker-end="url(#arrowhead)"/><path d="M441.588,441.588L366.639,369.805C291.69,298.022,141.791,154.456,-23.421,31.46C-188.633,-91.536,-369.16,-193.962,-459.423,-245.175L-549.686,-296.388" fill="none" stroke-width="1.5" stroke="green" opacity="0.7" marker-end="url(#arrowhead)"/><path d="M126.285,611.598L104.796,524.85C83.306,438.103,40.328,264.607,-7.659,263.211C-55.645,261.815,-108.639,432.518,-135.136,517.869L-161.632,603.221" fill="none" stroke-width="1.5" stroke="purple" opacity="0.7" marker-end="url(#arrowhead)"/><path d="M90.51,617.906L71.715,528.769C52.919,439.632,15.329,261.357,-64.313,240.018C-143.954,218.678,-265.645,354.273,-326.491,422.07L-387.337,489.868" fill="none" stroke-width="1.5" stroke="purple" opacity="0.7" marker-end="url(#arrowhead)"/><path d="M54.429,622.124L39.394,530.311C24.359,438.498,-5.712,254.873,-103.37,205.827C-201.029,156.781,-366.276,242.315,-448.899,285.081L-531.522,327.848" fill="none" stroke-width="1.5" stroke="green" opacity="0.7" marker-end="url(#arrowhead)"/><path d="M18.163,624.236L8.719,532.098C-0.725,439.959,-19.613,255.683,-111.228,206.285C-202.842,156.887,-367.182,242.367,-449.352,285.108L-531.522,327.848" fill="none" stroke-width="1.5" stroke="green" opacity="0.7" marker-end="url(#arrowhead)"/><path d="M-18.163,624.236L-23.14,528.68C-28.116,433.124,-38.069,242.012,-138.729,147.044C-239.389,52.076,-430.756,53.252,-526.44,53.841L-622.124,54.429" fill="none" stroke-width="1.5" stroke="purple" opacity="0.7" marker-end="url(#arrowhead)"/><path d="M-54.429,622.124L-52.682,530.311C-50.935,438.498,-47.44,254.873,-126.956,205.827C-206.472,156.781,-368.997,242.315,-450.26,285.081L-531.522,327.848" fill="none" stroke-width="1.5" stroke="green" opacity="0.7" marker-end="url(#arrowhead)"/><path d="M-126.285,611.598L-101.974,523.434C-77.664,435.269,-29.042,258.939,56.561,238.651C142.165,218.362,264.751,354.115,326.044,421.991L387.337,489.868" fill="none" stroke-width="1.5" stroke="blue" opacity="0.7" marker-end="url(#arrowhead)"/><path d="M-358.198,511.56L-297.787,438.526C-237.375,365.492,-116.551,219.424,12.343,211.917C141.237,204.41,278.201,335.463,346.683,400.99L415.165,466.517" fill="none" stroke-width="1.5" stroke="blue" opacity="0.7" marker-end="url(#arrowhead)"/><path d="M-511.56,358.198L-427.505,308.808C-343.45,259.417,-175.34,160.635,-20.886,178.688C133.569,196.742,274.367,331.629,344.766,399.073L415.165,466.517" fill="none" stroke-width="1.5" stroke="blue" opacity="0.7" marker-end="url(#arrowhead)"/><path fill="none" stroke-width="1.5" stroke="purple" opacity="0.7" marker-end="url(#arrowhead)"/><path d="M-580.378,-230.569L-486.061,-201.146C-391.744,-171.724,-203.111,-112.878,-41.825,-156.095C119.46,-199.311,253.399,-344.589,320.368,-417.228L387.337,-489.868" fill="none" stroke-width="1.5" stroke="blue" opacity="0.7" marker-end="url(#arrowhead)"/><path d="M-565.989,-263.925L-486.535,-223.464C-407.082,-183.002,-248.174,-102.079,-257.882,-61.119C-267.59,-20.159,-445.913,-19.161,-535.074,-18.662L-624.236,-18.163" fill="none" stroke-width="1.5" stroke="blue" opacity="0.7" marker-end="url(#arrowhead)"/><path d="M-549.686,-296.388L-470.462,-256.215C-391.239,-216.041,-232.792,-135.695,-214.776,-159.895C-196.76,-184.095,-319.174,-312.842,-380.381,-377.215L-441.588,-441.588" fill="none" stroke-width="1.5" stroke="green" opacity="0.7" marker-end="url(#arrowhead)"/><path d="M-531.522,-327.848L-454.769,-283.136C-378.015,-238.424,-224.508,-149.001,-205.116,-172.112C-185.723,-195.224,-300.444,-330.871,-357.804,-398.694L-415.165,-466.517" fill="none" stroke-width="1.5" stroke="green" opacity="0.7" marker-end="url(#arrowhead)"/><path d="M-511.56,-358.198L-438.215,-308.496C-364.869,-258.794,-218.178,-159.389,-206.516,-173.287C-194.853,-187.185,-318.221,-314.387,-379.905,-377.987L-441.588,-441.588" fill="none" stroke-width="1.5" stroke="green" opacity="0.7" marker-end="url(#arrowhead)"/><path d="M-489.868,-387.337L-419.866,-333.142C-349.865,-278.948,-209.862,-170.559,-201.815,-179.6C-193.769,-188.642,-317.679,-315.115,-379.633,-378.352L-441.588,-441.588" fill="none" stroke-width="1.5" stroke="green" opacity="0.7" marker-end="url(#arrowhead)"/><path d="M-466.517,-415.165L-397.051,-358.57C-327.585,-301.976,-188.653,-188.787,-143.639,-218.393C-98.625,-247.999,-147.529,-420.401,-171.981,-506.601L-196.433,-592.802" fill="none" stroke-width="1.5" stroke="green" opacity="0.7" marker-end="url(#arrowhead)"/><path d="M-387.337,-489.868L-331.721,-420.99C-276.104,-352.113,-164.872,-214.359,-154.957,-221.301C-145.042,-228.244,-236.445,-379.883,-282.146,-455.703L-327.848,-531.522" fill="none" stroke-width="1.5" stroke="blue" opacity="0.7" marker-end="url(#arrowhead)"/><path d="M-387.337,-489.868L-330.922,-421.421C-274.506,-352.975,-161.675,-216.082,-141.107,-228.769C-120.538,-241.456,-192.232,-403.723,-228.078,-484.856L-263.925,-565.989" fill="none" stroke-width="1.5" stroke="green" opacity="0.7" marker-end="url(#arrowhead)"/><path d="M-358.198,-511.56L-306.275,-439.77C-254.352,-367.979,-150.506,-224.398,-134.793,-233.469C-119.081,-242.541,-191.503,-404.265,-227.714,-485.127L-263.925,-565.989" fill="none" stroke-width="1.5" stroke="green" opacity="0.7" marker-end="url(#arrowhead)"/><path d="M-161.632,-603.221L-141.904,-516.056C-122.175,-428.891,-82.717,-254.56,-124.973,-231.777C-167.228,-208.993,-291.197,-337.755,-353.181,-402.136L-415.165,-466.517" fill="none" stroke-width="1.5" stroke="green" opacity="0.7" marker-end="url(#arrowhead)"/><path d="M-54.429,-622.124L-51.227,-532.044C-48.026,-441.965,-41.623,-261.807,-101.745,-235.872C-161.868,-209.938,-288.517,-338.227,-351.841,-402.372L-415.165,-466.517" fill="none" stroke-width="1.5" stroke="green" opacity="0.7" marker-end="url(#arrowhead)"/></g><g transform="translate(524.5, -604.5)"><rect x="0" y="0" width="12" height="12" fill="blue"/><rect x="0" y="20" width="12" height="12" fill="green"/><rect x="0" y="40" width="12" height="12" fill="purple"/><rect x="0" y="60" width="12" height="12" fill="yellow"/><text x="20" y="10" text-anchor="start" style="font-size: 14px;">GOTO</text><text x="20" y="30" text-anchor="start" style="font-size: 14px;">GOSUB</text><text x="20" y="50" text-anchor="start" style="font-size: 14px;">THEN</text><text x="20" y="70" text-anchor="start" style="font-size: 14px;">ELSE</text></g><g><path d="M358.198,-511.56L308.166,-426.863C258.133,-342.166,158.068,-172.772,167.562,-9.759C177.057,153.254,296.111,309.885,355.638,388.201L415.165,466.517" fill="none" stroke-width="1.5" stroke="blue" opacity="0.7"/><path d="M549.686,-296.388L472.483,-252.715C395.28,-209.042,240.874,-121.697,249.796,-99.238C258.719,-76.779,430.97,-119.206,517.095,-140.419L603.221,-161.632" fill="none" stroke-width="1.5" stroke="purple" opacity="0.7"/><path d="M592.802,-196.433L508.952,-164.129C425.102,-131.825,257.402,-67.218,259.138,-7.54C260.875,52.137,432.048,106.885,517.634,134.259L603.221,161.632" fill="none" stroke-width="1.5" stroke="purple" opacity="0.7"/><path d="M617.906,90.51L528.166,71.036C438.425,51.563,258.943,12.616,229.557,-76.067C200.171,-164.75,320.879,-303.169,381.234,-372.379L441.588,-441.588" fill="none" stroke-width="1.5" stroke="purple" opacity="0.7"/><path d="M611.598,126.285L522.83,101.296C434.062,76.307,256.525,26.33,228.19,-68.316C199.855,-162.961,320.722,-302.275,381.155,-371.931L441.588,-441.588" fill="none" stroke-width="1.5" stroke="blue" opacity="0.7"/><path d="M592.802,196.433L508.056,170.248C423.309,144.062,253.817,91.692,243.604,113.594C233.39,135.497,382.456,231.672,456.989,279.76L531.522,327.848" fill="none" stroke-width="1.5" stroke="purple" opacity="0.7"/><path d="M441.588,441.588L366.639,369.805C291.69,298.022,141.791,154.456,-23.421,31.46C-188.633,-91.536,-369.16,-193.962,-459.423,-245.175L-549.686,-296.388" fill="none" stroke-width="1.5" stroke="green" opacity="0.7"/><path d="M126.285,611.598L104.796,524.85C83.306,438.103,40.328,264.607,-7.659,263.211C-55.645,261.815,-108.639,432.518,-135.136,517.869L-161.632,603.221" fill="none" stroke-width="1.5" stroke="purple" opacity="0.7"/><path d="M90.51,617.906L71.715,528.769C52.919,439.632,15.329,261.357,-64.313,240.018C-143.954,218.678,-265.645,354.273,-326.491,422.07L-387.337,489.868" fill="none" stroke-width="1.5" stroke="purple" opacity="0.7"/><path d="M54.429,622.124L39.394,530.311C24.359,438.498,-5.712,254.873,-103.37,205.827C-201.029,156.781,-366.276,242.315,-448.899,285.081L-531.522,327.848" fill="none" stroke-width="1.5" stroke="green" opacity="0.7"/><path d="M18.163,624.236L8.719,532.098C-0.725,439.959,-19.613,255.683,-111.228,206.285C-202.842,156.887,-367.182,242.367,-449.352,285.108L-531.522,327.848" fill="none" stroke-width="1.5" stroke="green" opacity="0.7"/><path d="M-18.163,624.236L-23.14,528.68C-28.116,433.124,-38.069,242.012,-138.729,147.044C-239.389,52.076,-430.756,53.252,-526.44,53.841L-622.124,54.429" fill="none" stroke-width="1.5" stroke="purple" opacity="0.7"/><path d="M-54.429,622.124L-52.682,530.311C-50.935,438.498,-47.44,254.873,-126.956,205.827C-206.472,156.781,-368.997,242.315,-450.26,285.081L-531.522,327.848" fill="none" stroke-width="1.5" stroke="green" opacity="0.7"/><path d="M-126.285,611.598L-101.974,523.434C-77.664,435.269,-29.042,258.939,56.561,238.651C142.165,218.362,264.751,354.115,326.044,421.991L387.337,489.868" fill="none" stroke-width="1.5" stroke="blue" opacity="0.7"/><path d="M-358.198,511.56L-297.787,438.526C-237.375,365.492,-116.551,219.424,12.343,211.917C141.237,204.41,278.201,335.463,346.683,400.99L415.165,466.517" fill="none" stroke-width="1.5" stroke="blue" opacity="0.7"/><path d="M-511.56,358.198L-427.505,308.808C-343.45,259.417,-175.34,160.635,-20.886,178.688C133.569,196.742,274.367,331.629,344.766,399.073L415.165,466.517" fill="none" stroke-width="1.5" stroke="blue" opacity="0.7"/><path fill="none" stroke-width="1.5" stroke="purple" opacity="0.7"/><path d="M-580.378,-230.569L-486.061,-201.146C-391.744,-171.724,-203.111,-112.878,-41.825,-156.095C119.46,-199.311,253.399,-344.589,320.368,-417.228L387.337,-489.868" fill="none" stroke-width="1.5" stroke="blue" opacity="0.7"/><path d="M-565.989,-263.925L-486.535,-223.464C-407.082,-183.002,-248.174,-102.079,-257.882,-61.119C-267.59,-20.159,-445.913,-19.161,-535.074,-18.662L-624.236,-18.163" fill="none" stroke-width="1.5" stroke="blue" opacity="0.7"/><path d="M-549.686,-296.388L-470.462,-256.215C-391.239,-216.041,-232.792,-135.695,-214.776,-159.895C-196.76,-184.095,-319.174,-312.842,-380.381,-377.215L-441.588,-441.588" fill="none" stroke-width="1.5" stroke="green" opacity="0.7"/><path d="M-531.522,-327.848L-454.769,-283.136C-378.015,-238.424,-224.508,-149.001,-205.116,-172.112C-185.723,-195.224,-300.444,-330.871,-357.804,-398.694L-415.165,-466.517" fill="none" stroke-width="1.5" stroke="green" opacity="0.7"/><path d="M-511.56,-358.198L-438.215,-308.496C-364.869,-258.794,-218.178,-159.389,-206.516,-173.287C-194.853,-187.185,-318.221,-314.387,-379.905,-377.987L-441.588,-441.588" fill="none" stroke-width="1.5" stroke="green" opacity="0.7"/><path d="M-489.868,-387.337L-419.866,-333.142C-349.865,-278.948,-209.862,-170.559,-201.815,-179.6C-193.769,-188.642,-317.679,-315.115,-379.633,-378.352L-441.588,-441.588" fill="none" stroke-width="1.5" stroke="green" opacity="0.7"/><path d="M-466.517,-415.165L-397.051,-358.57C-327.585,-301.976,-188.653,-188.787,-143.639,-218.393C-98.625,-247.999,-147.529,-420.401,-171.981,-506.601L-196.433,-592.802" fill="none" stroke-width="1.5" stroke="green" opacity="0.7"/><path d="M-387.337,-489.868L-331.721,-420.99C-276.104,-352.113,-164.872,-214.359,-154.957,-221.301C-145.042,-228.244,-236.445,-379.883,-282.146,-455.703L-327.848,-531.522" fill="none" stroke-width="1.5" stroke="blue" opacity="0.7"/><path d="M-387.337,-489.868L-330.922,-421.421C-274.506,-352.975,-161.675,-216.082,-141.107,-228.769C-120.538,-241.456,-192.232,-403.723,-228.078,-484.856L-263.925,-565.989" fill="none" stroke-width="1.5" stroke="green" opacity="0.7"/><path d="M-358.198,-511.56L-306.275,-439.77C-254.352,-367.979,-150.506,-224.398,-134.793,-233.469C-119.081,-242.541,-191.503,-404.265,-227.714,-485.127L-263.925,-565.989" fill="none" stroke-width="1.5" stroke="green" opacity="0.7"/><path d="M-161.632,-603.221L-141.904,-516.056C-122.175,-428.891,-82.717,-254.56,-124.973,-231.777C-167.228,-208.993,-291.197,-337.755,-353.181,-402.136L-415.165,-466.517" fill="none" stroke-width="1.5" stroke="green" opacity="0.7"/><path d="M-54.429,-622.124L-51.227,-532.044C-48.026,-441.965,-41.623,-261.807,-101.745,-235.872C-161.868,-209.938,-288.517,-338.227,-351.841,-402.372L-415.165,-466.517" fill="none" stroke-width="1.5" stroke="green" opacity="0.7"/></g><g><text transform="&#xA;        rotate(-88.33333333333333)&#xA;        translate(632.5,0)&#xA;        &#xA;      " text-anchor="start">1</text><text transform="&#xA;        rotate(-85)&#xA;        translate(632.5,0)&#xA;        &#xA;      " text-anchor="start">2</text><text transform="&#xA;        rotate(-81.66666666666667)&#xA;        translate(632.5,0)&#xA;        &#xA;      " text-anchor="start">3</text><text transform="&#xA;        rotate(-78.33333333333333)&#xA;        translate(632.5,0)&#xA;        &#xA;      " text-anchor="start">4</text><text transform="&#xA;        rotate(-75)&#xA;        translate(632.5,0)&#xA;        &#xA;      " text-anchor="start">5</text><text transform="&#xA;        rotate(-71.66666666666667)&#xA;        translate(632.5,0)&#xA;        &#xA;      " text-anchor="start">6</text><text transform="&#xA;        rotate(-68.33333333333334)&#xA;        translate(632.5,0)&#xA;        &#xA;      " text-anchor="start">7</text><text transform="&#xA;        rotate(-65)&#xA;        translate(632.5,0)&#xA;        &#xA;      " text-anchor="start">8</text><text transform="&#xA;        rotate(-61.666666666666664)&#xA;        translate(632.5,0)&#xA;        &#xA;      " text-anchor="start">10</text><text transform="&#xA;        rotate(-58.33333333333333)&#xA;        translate(632.5,0)&#xA;        &#xA;      " text-anchor="start">12</text><text transform="&#xA;        rotate(-55)&#xA;        translate(632.5,0)&#xA;        &#xA;      " text-anchor="start">15</text><text transform="&#xA;        rotate(-51.666666666666664)&#xA;        translate(632.5,0)&#xA;        &#xA;      " text-anchor="start">20</text><text transform="&#xA;        rotate(-48.333333333333336)&#xA;        translate(632.5,0)&#xA;        &#xA;      " text-anchor="start">30</text><text transform="&#xA;        rotate(-45)&#xA;        translate(632.5,0)&#xA;        &#xA;      " text-anchor="start">50</text><text transform="&#xA;        rotate(-41.666666666666664)&#xA;        translate(632.5,0)&#xA;        &#xA;      " text-anchor="start">110</text><text transform="&#xA;        rotate(-38.333333333333336)&#xA;        translate(632.5,0)&#xA;        &#xA;      " text-anchor="start">112</text><text transform="&#xA;        rotate(-34.99999999999999)&#xA;        translate(632.5,0)&#xA;        &#xA;      " text-anchor="start">114</text><text transform="&#xA;        rotate(-31.666666666666664)&#xA;        translate(632.5,0)&#xA;        &#xA;      " text-anchor="start">116</text><text transform="&#xA;        rotate(-28.33333333333333)&#xA;        translate(632.5,0)&#xA;        &#xA;      " text-anchor="start">120</text><text transform="&#xA;        rotate(-25)&#xA;        translate(632.5,0)&#xA;        &#xA;      " text-anchor="start">122</text><text transform="&#xA;        rotate(-21.666666666666657)&#xA;        translate(632.5,0)&#xA;        &#xA;      " text-anchor="start">124</text><text transform="&#xA;        rotate(-18.33333333333333)&#xA;        translate(632.5,0)&#xA;        &#xA;      " text-anchor="start">126</text><text transform="&#xA;        rotate(-15)&#xA;        translate(632.5,0)&#xA;        &#xA;      " text-anchor="start">130</text><text transform="&#xA;        rotate(-11.666666666666671)&#xA;        translate(632.5,0)&#xA;        &#xA;      " text-anchor="start">165</text><text transform="&#xA;        rotate(-8.333333333333329)&#xA;        translate(632.5,0)&#xA;        &#xA;      " text-anchor="start">167</text><text transform="&#xA;        rotate(-5)&#xA;        translate(632.5,0)&#xA;        &#xA;      " text-anchor="start">170</text><text transform="&#xA;        rotate(-1.6666666666666572)&#xA;        translate(632.5,0)&#xA;        &#xA;      " text-anchor="start">180</text><text transform="&#xA;        rotate(1.6666666666666714)&#xA;        translate(632.5,0)&#xA;        &#xA;      " text-anchor="start">183</text><text transform="&#xA;        rotate(5)&#xA;        translate(632.5,0)&#xA;        &#xA;      " text-anchor="start">184</text><text transform="&#xA;        rotate(8.333333333333329)&#xA;        translate(632.5,0)&#xA;        &#xA;      " text-anchor="start">185</text><text transform="&#xA;        rotate(11.666666666666657)&#xA;        translate(632.5,0)&#xA;        &#xA;      " text-anchor="start">190</text><text transform="&#xA;        rotate(15)&#xA;        translate(632.5,0)&#xA;        &#xA;      " text-anchor="start">200</text><text transform="&#xA;        rotate(18.33333333333333)&#xA;        translate(632.5,0)&#xA;        &#xA;      " text-anchor="start">210</text><text transform="&#xA;        rotate(21.666666666666657)&#xA;        translate(632.5,0)&#xA;        &#xA;      " text-anchor="start">220</text><text transform="&#xA;        rotate(24.999999999999986)&#xA;        translate(632.5,0)&#xA;        &#xA;      " text-anchor="start">230</text><text transform="&#xA;        rotate(28.333333333333343)&#xA;        translate(632.5,0)&#xA;        &#xA;      " text-anchor="start">240</text><text transform="&#xA;        rotate(31.66666666666667)&#xA;        translate(632.5,0)&#xA;        &#xA;      " text-anchor="start">250</text><text transform="&#xA;        rotate(35)&#xA;        translate(632.5,0)&#xA;        &#xA;      " text-anchor="start">260</text><text transform="&#xA;        rotate(38.333333333333314)&#xA;        translate(632.5,0)&#xA;        &#xA;      " text-anchor="start">270</text><text transform="&#xA;        rotate(41.666666666666686)&#xA;        translate(632.5,0)&#xA;        &#xA;      " text-anchor="start">280</text><text transform="&#xA;        rotate(45)&#xA;        translate(632.5,0)&#xA;        &#xA;      " text-anchor="start">1500</text><text transform="&#xA;        rotate(48.333333333333314)&#xA;        translate(632.5,0)&#xA;        &#xA;      " text-anchor="start">2000</text><text transform="&#xA;        rotate(51.666666666666686)&#xA;        translate(632.5,0)&#xA;        &#xA;      " text-anchor="start">2005</text><text transform="&#xA;        rotate(55)&#xA;        translate(632.5,0)&#xA;        &#xA;      " text-anchor="start">2010</text><text transform="&#xA;        rotate(58.33333333333334)&#xA;        translate(632.5,0)&#xA;        &#xA;      " text-anchor="start">2020</text><text transform="&#xA;        rotate(61.66666666666666)&#xA;        translate(632.5,0)&#xA;        &#xA;      " text-anchor="start">2040</text><text transform="&#xA;        rotate(65)&#xA;        translate(632.5,0)&#xA;        &#xA;      " text-anchor="start">2050</text><text transform="&#xA;        rotate(68.33333333333334)&#xA;        translate(632.5,0)&#xA;        &#xA;      " text-anchor="start">2055</text><text transform="&#xA;        rotate(71.66666666666666)&#xA;        translate(632.5,0)&#xA;        &#xA;      " text-anchor="start">2060</text><text transform="&#xA;        rotate(75)&#xA;        translate(632.5,0)&#xA;        &#xA;      " text-anchor="start">2065</text><text transform="&#xA;        rotate(78.33333333333334)&#xA;        translate(632.5,0)&#xA;        &#xA;      " text-anchor="start">2100</text><text transform="&#xA;        rotate(81.66666666666666)&#xA;        translate(632.5,0)&#xA;        &#xA;      " text-anchor="start">2110</text><text transform="&#xA;        rotate(85)&#xA;        translate(632.5,0)&#xA;        &#xA;      " text-anchor="start">2130</text><text transform="&#xA;        rotate(88.33333333333331)&#xA;        translate(632.5,0)&#xA;        &#xA;      " text-anchor="start">2140</text><text transform="&#xA;        rotate(91.66666666666669)&#xA;        translate(632.5,0)&#xA;        rotate(180)&#xA;      " text-anchor="end">2150</text><text transform="&#xA;        rotate(94.99999999999997)&#xA;        translate(632.5,0)&#xA;        rotate(180)&#xA;      " text-anchor="end">2155</text><text transform="&#xA;        rotate(98.33333333333334)&#xA;        translate(632.5,0)&#xA;        rotate(180)&#xA;      " text-anchor="end">2160</text><text transform="&#xA;        rotate(101.66666666666669)&#xA;        translate(632.5,0)&#xA;        rotate(180)&#xA;      " text-anchor="end">2170</text><text transform="&#xA;        rotate(105)&#xA;        translate(632.5,0)&#xA;        rotate(180)&#xA;      " text-anchor="end">3000</text><text transform="&#xA;        rotate(108.33333333333334)&#xA;        translate(632.5,0)&#xA;        rotate(180)&#xA;      " text-anchor="end">3010</text><text transform="&#xA;        rotate(111.66666666666669)&#xA;        translate(632.5,0)&#xA;        rotate(180)&#xA;      " text-anchor="end">3012</text><text transform="&#xA;        rotate(115)&#xA;        translate(632.5,0)&#xA;        rotate(180)&#xA;      " text-anchor="end">3015</text><text transform="&#xA;        rotate(118.33333333333334)&#xA;        translate(632.5,0)&#xA;        rotate(180)&#xA;      " text-anchor="end">3016</text><text transform="&#xA;        rotate(121.66666666666666)&#xA;        translate(632.5,0)&#xA;        rotate(180)&#xA;      " text-anchor="end">3020</text><text transform="&#xA;        rotate(125)&#xA;        translate(632.5,0)&#xA;        rotate(180)&#xA;      " text-anchor="end">3030</text><text transform="&#xA;        rotate(128.33333333333334)&#xA;        translate(632.5,0)&#xA;        rotate(180)&#xA;      " text-anchor="end">4000</text><text transform="&#xA;        rotate(131.66666666666666)&#xA;        translate(632.5,0)&#xA;        rotate(180)&#xA;      " text-anchor="end">4010</text><text transform="&#xA;        rotate(135)&#xA;        translate(632.5,0)&#xA;        rotate(180)&#xA;      " text-anchor="end">4012</text><text transform="&#xA;        rotate(138.33333333333334)&#xA;        translate(632.5,0)&#xA;        rotate(180)&#xA;      " text-anchor="end">4015</text><text transform="&#xA;        rotate(141.66666666666666)&#xA;        translate(632.5,0)&#xA;        rotate(180)&#xA;      " text-anchor="end">4020</text><text transform="&#xA;        rotate(145)&#xA;        translate(632.5,0)&#xA;        rotate(180)&#xA;      " text-anchor="end">4030</text><text transform="&#xA;        rotate(148.33333333333334)&#xA;        translate(632.5,0)&#xA;        rotate(180)&#xA;      " text-anchor="end">6000</text><text transform="&#xA;        rotate(151.66666666666666)&#xA;        translate(632.5,0)&#xA;        rotate(180)&#xA;      " text-anchor="end">6010</text><text transform="&#xA;        rotate(155)&#xA;        translate(632.5,0)&#xA;        rotate(180)&#xA;      " text-anchor="end">6020</text><text transform="&#xA;        rotate(158.33333333333331)&#xA;        translate(632.5,0)&#xA;        rotate(180)&#xA;      " text-anchor="end">6030</text><text transform="&#xA;        rotate(161.66666666666666)&#xA;        translate(632.5,0)&#xA;        rotate(180)&#xA;      " text-anchor="end">6040</text><text transform="&#xA;        rotate(165)&#xA;        translate(632.5,0)&#xA;        rotate(180)&#xA;      " text-anchor="end">6050</text><text transform="&#xA;        rotate(168.33333333333331)&#xA;        translate(632.5,0)&#xA;        rotate(180)&#xA;      " text-anchor="end">6060</text><text transform="&#xA;        rotate(171.66666666666669)&#xA;        translate(632.5,0)&#xA;        rotate(180)&#xA;      " text-anchor="end">6070</text><text transform="&#xA;        rotate(175)&#xA;        translate(632.5,0)&#xA;        rotate(180)&#xA;      " text-anchor="end">8000</text><text transform="&#xA;        rotate(178.33333333333331)&#xA;        translate(632.5,0)&#xA;        rotate(180)&#xA;      " text-anchor="end">8005</text><text transform="&#xA;        rotate(181.66666666666669)&#xA;        translate(632.5,0)&#xA;        rotate(180)&#xA;      " text-anchor="end">8010</text><text transform="&#xA;        rotate(185)&#xA;        translate(632.5,0)&#xA;        rotate(180)&#xA;      " text-anchor="end">8015</text><text transform="&#xA;        rotate(188.33333333333331)&#xA;        translate(632.5,0)&#xA;        rotate(180)&#xA;      " text-anchor="end">8016</text><text transform="&#xA;        rotate(191.66666666666669)&#xA;        translate(632.5,0)&#xA;        rotate(180)&#xA;      " text-anchor="end">8017</text><text transform="&#xA;        rotate(195)&#xA;        translate(632.5,0)&#xA;        rotate(180)&#xA;      " text-anchor="end">8020</text><text transform="&#xA;        rotate(198.33333333333331)&#xA;        translate(632.5,0)&#xA;        rotate(180)&#xA;      " text-anchor="end">8022</text><text transform="&#xA;        rotate(201.66666666666669)&#xA;        translate(632.5,0)&#xA;        rotate(180)&#xA;      " text-anchor="end">8025</text><text transform="&#xA;        rotate(205)&#xA;        translate(632.5,0)&#xA;        rotate(180)&#xA;      " text-anchor="end">8030</text><text transform="&#xA;        rotate(208.33333333333331)&#xA;        translate(632.5,0)&#xA;        rotate(180)&#xA;      " text-anchor="end">50000</text><text transform="&#xA;        rotate(211.66666666666663)&#xA;        translate(632.5,0)&#xA;        rotate(180)&#xA;      " text-anchor="end">50010</text><text transform="&#xA;        rotate(215)&#xA;        translate(632.5,0)&#xA;        rotate(180)&#xA;      " text-anchor="end">50015</text><text transform="&#xA;        rotate(218.33333333333337)&#xA;        translate(632.5,0)&#xA;        rotate(180)&#xA;      " text-anchor="end">50020</text><text transform="&#xA;        rotate(221.66666666666663)&#xA;        translate(632.5,0)&#xA;        rotate(180)&#xA;      " text-anchor="end">50030</text><text transform="&#xA;        rotate(225)&#xA;        translate(632.5,0)&#xA;        rotate(180)&#xA;      " text-anchor="end">50100</text><text transform="&#xA;        rotate(228.33333333333337)&#xA;        translate(632.5,0)&#xA;        rotate(180)&#xA;      " text-anchor="end">50200</text><text transform="&#xA;        rotate(231.66666666666663)&#xA;        translate(632.5,0)&#xA;        rotate(180)&#xA;      " text-anchor="end">50210</text><text transform="&#xA;        rotate(235)&#xA;        translate(632.5,0)&#xA;        rotate(180)&#xA;      " text-anchor="end">50220</text><text transform="&#xA;        rotate(238.33333333333337)&#xA;        translate(632.5,0)&#xA;        rotate(180)&#xA;      " text-anchor="end">50230</text><text transform="&#xA;        rotate(241.66666666666669)&#xA;        translate(632.5,0)&#xA;        rotate(180)&#xA;      " text-anchor="end">50240</text><text transform="&#xA;        rotate(245)&#xA;        translate(632.5,0)&#xA;        rotate(180)&#xA;      " text-anchor="end">50300</text><text transform="&#xA;        rotate(248.33333333333331)&#xA;        translate(632.5,0)&#xA;        rotate(180)&#xA;      " text-anchor="end">50310</text><text transform="&#xA;        rotate(251.66666666666669)&#xA;        translate(632.5,0)&#xA;        rotate(180)&#xA;      " text-anchor="end">50400</text><text transform="&#xA;        rotate(255)&#xA;        translate(632.5,0)&#xA;        rotate(180)&#xA;      " text-anchor="end">50410</text><text transform="&#xA;        rotate(258.3333333333333)&#xA;        translate(632.5,0)&#xA;        rotate(180)&#xA;      " text-anchor="end">50420</text><text transform="&#xA;        rotate(261.6666666666667)&#xA;        translate(632.5,0)&#xA;        rotate(180)&#xA;      " text-anchor="end">50430</text><text transform="&#xA;        rotate(265)&#xA;        translate(632.5,0)&#xA;        rotate(180)&#xA;      " text-anchor="end">50440</text><text transform="&#xA;        rotate(268.3333333333333)&#xA;        translate(632.5,0)&#xA;        rotate(180)&#xA;      " text-anchor="end">50450</text></g></svg>