<svg xmlns:xlink="http://www.w3.org/1999/xlink" xmlns="http://www.w3.org/2000/svg" viewBox="-853,-714.5,1706,1379"><text x="0" y="-684.5" text-anchor="middle" style="font-size: 24px; font-weight: bold;">Control Flow of 'zeichen-gen2'</text><defs><marker id="arrowhead" viewBox="0 -5 10 10" refX="10" refY="0" markerWidth="6" markerHeight="6" orient="auto"><path d="M0,-5L10,0L0,5" fill="black"/></marker></defs><g><path fill="none" stroke-width="1.5" stroke="purple" opacity="0.7" marker-end="url(#arrowhead)"/><path d="M234.594,-578.763L202.489,-496.203C170.384,-413.643,106.175,-248.524,121.235,-240.947C136.294,-233.369,230.622,-383.334,277.786,-458.316L324.95,-533.299" fill="none" stroke-width="1.5" stroke="blue" opacity="0.7" marker-end="url(#arrowhead)"/><path d="M257.856,-568.78L222.165,-487.759C186.474,-406.739,115.092,-244.697,126.275,-238.784C137.457,-232.87,231.204,-383.084,278.077,-458.192L324.95,-533.299" fill="none" stroke-width="1.5" stroke="blue" opacity="0.7" marker-end="url(#arrowhead)"/><path d="M280.694,-557.863L242.505,-477.782C204.316,-397.701,127.938,-237.54,148.953,-223.537C169.968,-209.534,288.375,-341.689,347.579,-407.767L406.782,-473.844" fill="none" stroke-width="1.5" stroke="purple" opacity="0.7" marker-end="url(#arrowhead)"/><path d="M303.071,-546.029L256.506,-469.655C209.941,-393.28,116.81,-240.53,68.408,-253.587C20.005,-266.644,16.331,-445.508,14.494,-534.94L12.657,-624.372" fill="none" stroke-width="1.5" stroke="blue" opacity="0.7" marker-end="url(#arrowhead)"/><path d="M443.82,-439.345L369.129,-366.96C294.438,-294.576,145.057,-149.807,-12.494,-14.554C-170.045,120.699,-335.765,246.436,-418.625,309.305L-501.485,372.173" fill="none" stroke-width="1.5" stroke="green" opacity="0.7" marker-end="url(#arrowhead)"/><path d="M461.26,-420.998L396.936,-352.237C332.612,-283.476,203.963,-145.953,217.575,-24.355C231.186,97.243,387.058,202.916,464.994,255.752L542.93,308.589" fill="none" stroke-width="1.5" stroke="green" opacity="0.7" marker-end="url(#arrowhead)"/><path d="M493.839,-382.26L424.246,-327.591C354.652,-272.922,215.464,-163.584,220.353,-156.709C225.242,-149.834,374.208,-245.423,448.691,-293.217L523.175,-341.011" fill="none" stroke-width="1.5" stroke="blue" opacity="0.7" marker-end="url(#arrowhead)"/><path d="M536.564,-319.529L459.818,-275.293C383.072,-231.057,229.58,-142.584,219.81,-156.322C210.039,-170.061,343.991,-286.01,410.967,-343.985L477.942,-401.959" fill="none" stroke-width="1.5" stroke="purple" opacity="0.7" marker-end="url(#arrowhead)"/><path d="M549.073,-297.522L457.22,-248.648C365.366,-199.775,181.66,-102.028,-5.911,-12.366C-193.483,77.295,-384.919,158.871,-480.637,199.659L-576.355,240.447" fill="none" stroke-width="1.5" stroke="green" opacity="0.7" marker-end="url(#arrowhead)"/><path d="M597.724,-180.904L498.37,-150.009C399.017,-119.114,200.31,-57.324,4.63,12.901C-191.05,83.126,-383.703,161.786,-480.029,201.117L-576.355,240.447" fill="none" stroke-width="1.5" stroke="green" opacity="0.7" marker-end="url(#arrowhead)"/><path d="M604.564,-156.533L504.156,-129.395C403.748,-102.257,202.932,-47.982,6.112,18.181C-190.708,84.345,-383.532,162.396,-479.944,201.421L-576.355,240.447" fill="none" stroke-width="1.5" stroke="green" opacity="0.7" marker-end="url(#arrowhead)"/><path d="M610.411,-131.904L509.102,-108.563C407.792,-85.222,205.173,-38.541,7.379,23.518C-190.416,85.576,-383.386,163.011,-479.871,201.729L-576.355,240.447" fill="none" stroke-width="1.5" stroke="green" opacity="0.7" marker-end="url(#arrowhead)"/><path d="M621.904,-56.88L532.002,-53.136C442.099,-49.391,262.294,-41.902,238.3,-99.415C214.306,-156.928,346.124,-279.444,412.033,-340.702L477.942,-401.959" fill="none" stroke-width="1.5" stroke="purple" opacity="0.7" marker-end="url(#arrowhead)"/><path d="M623.698,-31.63L532.749,-20.935C441.799,-10.24,259.9,11.15,225.333,94.006C190.767,176.861,303.535,321.182,359.918,393.342L416.302,465.503" fill="none" stroke-width="1.5" stroke="purple" opacity="0.7" marker-end="url(#arrowhead)"/><path d="M624.468,-6.329L529.143,2.396C433.818,11.12,243.167,28.568,151.716,132.938C60.264,237.307,68.011,428.598,71.885,524.243L75.758,619.888" fill="none" stroke-width="1.5" stroke="purple" opacity="0.7" marker-end="url(#arrowhead)"/><path d="M624.211,18.983L533.953,11.032C443.695,3.081,263.178,-12.821,238.8,-82.978C214.422,-153.135,346.182,-277.547,412.062,-339.753L477.942,-401.959" fill="none" stroke-width="1.5" stroke="blue" opacity="0.7" marker-end="url(#arrowhead)"/><path d="M624.211,18.983L534.765,19.914C445.319,20.845,266.428,22.706,252.881,70.974C239.334,119.242,391.132,213.915,467.031,261.252L542.93,308.589" fill="none" stroke-width="1.5" stroke="green" opacity="0.7" marker-end="url(#arrowhead)"/><path d="M622.929,44.264L522.968,44.187C423.008,44.111,223.086,43.957,66.918,126.542C-89.249,209.127,-201.662,374.451,-257.869,457.113L-314.075,539.775" fill="none" stroke-width="1.5" stroke="green" opacity="0.7" marker-end="url(#arrowhead)"/><path d="M620.624,69.473L530.919,53.738C441.213,38.003,261.803,6.533,238.023,-72.039C214.242,-150.611,346.092,-276.285,412.017,-339.122L477.942,-401.959" fill="none" stroke-width="1.5" stroke="blue" opacity="0.7" marker-end="url(#arrowhead)"/><path d="M620.624,69.473L522.759,66.256C424.894,63.04,229.164,56.607,96.587,144.95C-35.99,233.292,-105.414,416.409,-140.126,507.968L-174.838,599.527" fill="none" stroke-width="1.5" stroke="green" opacity="0.7" marker-end="url(#arrowhead)"/><path d="M617.298,94.567L528.106,74.963C438.913,55.36,260.528,16.153,237.302,-66.602C214.076,-149.356,346.009,-275.658,411.976,-338.808L477.942,-401.959" fill="none" stroke-width="1.5" stroke="blue" opacity="0.7" marker-end="url(#arrowhead)"/><path d="M612.959,119.505L524.435,96.057C435.912,72.609,258.865,25.712,236.362,-61.198C213.859,-148.109,345.901,-275.034,411.922,-338.497L477.942,-401.959" fill="none" stroke-width="1.5" stroke="blue" opacity="0.7" marker-end="url(#arrowhead)"/><path d="M607.612,144.248L519.913,116.985C432.214,89.722,256.815,35.197,235.204,-55.838C213.592,-146.872,345.767,-274.416,411.855,-338.187L477.942,-401.959" fill="none" stroke-width="1.5" stroke="blue" opacity="0.7" marker-end="url(#arrowhead)"/><path d="M601.268,168.753L514.546,137.712C427.825,106.672,254.383,44.591,233.829,-50.528C213.275,-145.647,345.609,-273.803,411.775,-337.881L477.942,-401.959" fill="none" stroke-width="1.5" stroke="blue" opacity="0.7" marker-end="url(#arrowhead)"/><path d="M601.268,168.753L501.101,140.476C400.934,112.198,200.6,55.643,0.768,-2.633C-199.064,-60.909,-398.394,-120.907,-498.059,-150.905L-597.724,-180.904" fill="none" stroke-width="1.5" stroke="green" opacity="0.7" marker-end="url(#arrowhead)"/><path d="M593.935,192.981L508.344,158.205C422.753,123.43,251.572,53.878,232.24,-45.279C212.908,-144.435,345.425,-273.197,411.684,-337.578L477.942,-401.959" fill="none" stroke-width="1.5" stroke="blue" opacity="0.7" marker-end="url(#arrowhead)"/><path d="M593.935,192.981L495.05,165.941C396.164,138.901,198.394,84.821,1.8,88.806C-194.793,92.791,-390.21,154.842,-487.918,185.867L-585.626,216.892" fill="none" stroke-width="1.5" stroke="green" opacity="0.7" marker-end="url(#arrowhead)"/><path d="M585.626,216.892L501.316,178.43C417.007,139.968,248.387,63.044,230.44,-40.098C212.493,-143.24,345.218,-272.6,411.58,-337.279L477.942,-401.959" fill="none" stroke-width="1.5" stroke="blue" opacity="0.7" marker-end="url(#arrowhead)"/><path d="M585.626,216.892L488.022,186.166C390.417,155.439,195.209,93.987,0,93.987C-195.209,93.987,-390.417,155.439,-488.022,186.166L-585.626,216.892" fill="none" stroke-width="1.5" stroke="green" opacity="0.7" marker-end="url(#arrowhead)"/><path d="M576.355,240.447L492.585,197.455C408.815,154.463,241.275,68.479,213.013,-50.569C184.751,-169.618,295.767,-321.731,351.274,-397.788L406.782,-473.844" fill="none" stroke-width="1.5" stroke="blue" opacity="0.7" marker-end="url(#arrowhead)"/><path d="M576.355,240.447L479.905,205.181C383.456,169.915,190.556,99.384,-6.772,83.35C-204.1,67.317,-405.856,105.782,-506.734,125.015L-607.612,144.248" fill="none" stroke-width="1.5" stroke="green" opacity="0.7" marker-end="url(#arrowhead)"/><path d="M566.138,263.606L483.943,217.044C401.748,170.482,237.359,77.357,210.799,-45.552C184.24,-168.46,295.511,-321.152,351.147,-397.498L406.782,-473.844" fill="none" stroke-width="1.5" stroke="blue" opacity="0.7" marker-end="url(#arrowhead)"/><path d="M566.138,263.606L474.529,216.471C382.921,169.335,199.705,75.065,47.632,-55.485C-104.44,-186.035,-225.368,-352.863,-285.832,-436.278L-346.296,-519.692" fill="none" stroke-width="1.5" stroke="green" opacity="0.7" marker-end="url(#arrowhead)"/><path d="M554.99,286.333L475.403,237.165C395.817,187.998,236.643,89.663,223.802,-25.052C210.961,-139.768,344.452,-270.864,411.197,-336.411L477.942,-401.959" fill="none" stroke-width="1.5" stroke="blue" opacity="0.7" marker-end="url(#arrowhead)"/><path d="M529.978,330.338L454.542,284.063C379.105,237.788,228.233,145.238,223.484,152.211C218.735,159.183,360.11,265.678,430.798,318.926L501.485,372.173" fill="none" stroke-width="1.5" stroke="blue" opacity="0.7" marker-end="url(#arrowhead)"/><path d="M485.991,392.19L416.725,337.106C347.459,282.021,208.928,171.853,203.369,178.198C197.809,184.542,325.221,307.401,388.927,368.83L452.633,430.26" fill="none" stroke-width="1.5" stroke="blue" opacity="0.7" marker-end="url(#arrowhead)"/><path d="M335.692,526.603L286.125,452.913C236.558,379.222,137.424,231.841,110.615,243.995C83.806,256.149,129.322,427.838,152.08,513.682L174.838,599.527" fill="none" stroke-width="1.5" stroke="purple" opacity="0.7" marker-end="url(#arrowhead)"/><path d="M314.075,539.775L269.022,463.603C223.969,387.43,133.862,235.086,126.404,239.029C118.947,242.973,194.139,403.205,231.734,483.321L269.33,563.437" fill="none" stroke-width="1.5" stroke="purple" opacity="0.7" marker-end="url(#arrowhead)"/><path d="M291.942,552.06L249.72,474.243C207.497,396.426,123.052,240.793,111.531,246.016C100.01,251.239,161.413,417.319,192.114,500.358L222.816,583.398" fill="none" stroke-width="1.5" stroke="blue" opacity="0.7" marker-end="url(#arrowhead)"/><path d="M-50.575,622.449L-44.658,534.064C-38.741,445.68,-26.907,268.911,-43.544,266.19C-60.181,263.468,-105.29,434.794,-127.844,520.457L-150.398,606.119" fill="none" stroke-width="1.5" stroke="purple" opacity="0.7" marker-end="url(#arrowhead)"/><path d="M-75.758,619.888L-61.294,531.614C-46.829,443.341,-17.9,266.794,31.862,260.712C81.625,254.63,152.22,419.014,187.518,501.206L222.816,583.398" fill="none" stroke-width="1.5" stroke="purple" opacity="0.7" marker-end="url(#arrowhead)"/><path d="M-198.99,591.949L-174.581,505.342C-150.172,418.735,-101.354,245.522,-151.77,208.893C-202.186,172.264,-351.835,272.218,-426.66,322.196L-501.485,372.173" fill="none" stroke-width="1.5" stroke="green" opacity="0.7" marker-end="url(#arrowhead)"/><path fill="none" stroke-width="1.5" stroke="purple" opacity="0.7" marker-end="url(#arrowhead)"/><path d="M-246.275,573.889L-201.521,489.272C-156.767,404.655,-67.259,235.42,64.275,191.204C195.809,146.987,369.37,227.788,456.15,268.188L542.93,308.589" fill="none" stroke-width="1.5" stroke="green" opacity="0.7" marker-end="url(#arrowhead)"/><path d="M-269.33,563.437L-230.296,483.973C-191.261,404.509,-113.193,245.582,-101.469,250.334C-89.746,255.086,-144.368,423.517,-171.679,507.733L-198.99,591.949" fill="none" stroke-width="1.5" stroke="blue" opacity="0.7" marker-end="url(#arrowhead)"/><path d="M-291.942,552.06L-249.422,474.35C-206.902,396.64,-121.861,241.22,-106.369,247.868C-90.877,254.517,-144.933,423.233,-171.962,507.591L-198.99,591.949" fill="none" stroke-width="1.5" stroke="blue" opacity="0.7" marker-end="url(#arrowhead)"/><path d="M-335.692,526.603L-290.726,449.276C-245.76,371.949,-155.828,217.294,-190.368,180.958C-224.908,144.623,-383.919,226.606,-463.425,267.597L-542.93,308.589" fill="none" stroke-width="1.5" stroke="green" opacity="0.7" marker-end="url(#arrowhead)"/><path fill="none" stroke-width="1.5" stroke="purple" opacity="0.7" marker-end="url(#arrowhead)"/><path d="M-377.236,497.688L-324.514,426.564C-271.792,355.44,-166.348,213.193,-175.946,204.953C-185.545,196.713,-310.185,322.482,-372.505,385.366L-434.825,448.25" fill="none" stroke-width="1.5" stroke="green" opacity="0.7" marker-end="url(#arrowhead)"/><path d="M-397.095,481.991L-339.802,414.432C-282.509,346.872,-167.924,211.752,-154.087,221.383C-140.25,231.013,-227.163,385.394,-270.619,462.585L-314.075,539.775" fill="none" stroke-width="1.5" stroke="purple" opacity="0.7" marker-end="url(#arrowhead)"/><path d="M-416.302,465.503L-356.318,400.32C-296.334,335.138,-176.367,204.773,-162.932,214.956C-149.497,225.14,-242.594,375.872,-289.143,451.238L-335.692,526.603" fill="none" stroke-width="1.5" stroke="blue" opacity="0.7" marker-end="url(#arrowhead)"/><path d="M-593.935,192.981L-495.583,167.087C-397.232,141.193,-200.528,89.406,-11.051,108.674C178.426,127.941,360.678,218.265,451.804,263.427L542.93,308.589" fill="none" stroke-width="1.5" stroke="green" opacity="0.7" marker-end="url(#arrowhead)"/><path d="M-617.298,94.567L-529.928,79.592C-442.557,64.618,-267.816,34.669,-268.883,13.636C-269.949,-7.397,-446.824,-19.514,-535.261,-25.572L-623.698,-31.63" fill="none" stroke-width="1.5" stroke="purple" opacity="0.7" marker-end="url(#arrowhead)"/><path d="M-624.468,-6.329L-535.97,-6.064C-447.471,-5.799,-270.475,-5.27,-270.047,-13.695C-269.62,-22.12,-445.762,-39.5,-533.833,-48.19L-621.904,-56.88" fill="none" stroke-width="1.5" stroke="blue" opacity="0.7" marker-end="url(#arrowhead)"/><path d="M-623.698,-31.63L-535.207,-25.26C-446.715,-18.89,-269.732,-6.15,-267.942,19.04C-266.153,44.229,-439.556,81.867,-526.257,100.686L-612.959,119.505" fill="none" stroke-width="1.5" stroke="blue" opacity="0.7" marker-end="url(#arrowhead)"/><path d="M-619.088,-82.036L-531.419,-70.1C-443.75,-58.164,-268.412,-34.291,-268.882,-30.099C-269.351,-25.906,-445.628,-41.393,-533.766,-49.137L-621.904,-56.88" fill="none" stroke-width="1.5" stroke="blue" opacity="0.7" marker-end="url(#arrowhead)"/><path fill="none" stroke-width="1.5" stroke="blue" opacity="0.7" marker-end="url(#arrowhead)"/><path d="M-508.925,-361.933L-436.44,-311.16C-363.955,-260.386,-218.985,-158.839,-213.821,-165.51C-208.658,-172.181,-343.3,-287.07,-410.621,-344.515L-477.942,-401.959" fill="none" stroke-width="1.5" stroke="purple" opacity="0.7" marker-end="url(#arrowhead)"/><path d="M-443.82,-439.345L-380.238,-377.737C-316.657,-316.129,-189.493,-192.913,-180.064,-201.345C-170.635,-209.778,-278.94,-349.859,-333.093,-419.9L-387.245,-489.94" fill="none" stroke-width="1.5" stroke="green" opacity="0.7" marker-end="url(#arrowhead)"/><path d="M-425.651,-456.97L-366.893,-390.24C-308.135,-323.509,-190.62,-190.048,-211.19,-163.473C-231.76,-136.899,-390.417,-217.21,-469.745,-257.366L-549.073,-297.522" fill="none" stroke-width="1.5" stroke="blue" opacity="0.7" marker-end="url(#arrowhead)"/><path d="M-425.651,-456.97L-364.87,-392.645C-304.09,-328.319,-182.528,-199.669,-176.127,-205.164C-169.727,-210.659,-278.486,-350.3,-332.865,-420.12L-387.245,-489.94" fill="none" stroke-width="1.5" stroke="green" opacity="0.7" marker-end="url(#arrowhead)"/><path d="M-406.782,-473.844L-350.777,-404.788C-294.772,-335.731,-182.761,-197.617,-204.392,-171.898C-226.022,-146.178,-381.293,-232.854,-458.929,-276.191L-536.564,-319.529" fill="none" stroke-width="1.5" stroke="blue" opacity="0.7" marker-end="url(#arrowhead)"/><path d="M-138.083,-609.043L-117.899,-522.877C-97.715,-436.71,-57.347,-264.378,-49.051,-265.908C-40.755,-267.438,-64.53,-442.832,-76.418,-530.528L-88.306,-618.225" fill="none" stroke-width="1.5" stroke="blue" opacity="0.7" marker-end="url(#arrowhead)"/></g><g transform="translate(524.5, -604.5)"><rect x="0" y="0" width="12" height="12" fill="blue"/><rect x="0" y="20" width="12" height="12" fill="green"/><rect x="0" y="40" width="12" height="12" fill="purple"/><rect x="0" y="60" width="12" height="12" fill="yellow"/><text x="20" y="10" text-anchor="start" style="font-size: 14px;">GOTO</text><text x="20" y="30" text-anchor="start" style="font-size: 14px;">GOSUB</text><text x="20" y="50" text-anchor="start" style="font-size: 14px;">THEN</text><text x="20" y="70" text-anchor="start" style="font-size: 14px;">ELSE</text></g><g><path fill="none" stroke-width="1.5" stroke="purple" opacity="0.7"/><path d="M234.594,-578.763L202.489,-496.203C170.384,-413.643,106.175,-248.524,121.235,-240.947C136.294,-233.369,230.622,-383.334,277.786,-458.316L324.95,-533.299" fill="none" stroke-width="1.5" stroke="blue" opacity="0.7"/><path d="M257.856,-568.78L222.165,-487.759C186.474,-406.739,115.092,-244.697,126.275,-238.784C137.457,-232.87,231.204,-383.084,278.077,-458.192L324.95,-533.299" fill="none" stroke-width="1.5" stroke="blue" opacity="0.7"/><path d="M280.694,-557.863L242.505,-477.782C204.316,-397.701,127.938,-237.54,148.953,-223.537C169.968,-209.534,288.375,-341.689,347.579,-407.767L406.782,-473.844" fill="none" stroke-width="1.5" stroke="purple" opacity="0.7"/><path d="M303.071,-546.029L256.506,-469.655C209.941,-393.28,116.81,-240.53,68.408,-253.587C20.005,-266.644,16.331,-445.508,14.494,-534.94L12.657,-624.372" fill="none" stroke-width="1.5" stroke="blue" opacity="0.7"/><path d="M443.82,-439.345L369.129,-366.96C294.438,-294.576,145.057,-149.807,-12.494,-14.554C-170.045,120.699,-335.765,246.436,-418.625,309.305L-501.485,372.173" fill="none" stroke-width="1.5" stroke="green" opacity="0.7"/><path d="M461.26,-420.998L396.936,-352.237C332.612,-283.476,203.963,-145.953,217.575,-24.355C231.186,97.243,387.058,202.916,464.994,255.752L542.93,308.589" fill="none" stroke-width="1.5" stroke="green" opacity="0.7"/><path d="M493.839,-382.26L424.246,-327.591C354.652,-272.922,215.464,-163.584,220.353,-156.709C225.242,-149.834,374.208,-245.423,448.691,-293.217L523.175,-341.011" fill="none" stroke-width="1.5" stroke="blue" opacity="0.7"/><path d="M536.564,-319.529L459.818,-275.293C383.072,-231.057,229.58,-142.584,219.81,-156.322C210.039,-170.061,343.991,-286.01,410.967,-343.985L477.942,-401.959" fill="none" stroke-width="1.5" stroke="purple" opacity="0.7"/><path d="M549.073,-297.522L457.22,-248.648C365.366,-199.775,181.66,-102.028,-5.911,-12.366C-193.483,77.295,-384.919,158.871,-480.637,199.659L-576.355,240.447" fill="none" stroke-width="1.5" stroke="green" opacity="0.7"/><path d="M597.724,-180.904L498.37,-150.009C399.017,-119.114,200.31,-57.324,4.63,12.901C-191.05,83.126,-383.703,161.786,-480.029,201.117L-576.355,240.447" fill="none" stroke-width="1.5" stroke="green" opacity="0.7"/><path d="M604.564,-156.533L504.156,-129.395C403.748,-102.257,202.932,-47.982,6.112,18.181C-190.708,84.345,-383.532,162.396,-479.944,201.421L-576.355,240.447" fill="none" stroke-width="1.5" stroke="green" opacity="0.7"/><path d="M610.411,-131.904L509.102,-108.563C407.792,-85.222,205.173,-38.541,7.379,23.518C-190.416,85.576,-383.386,163.011,-479.871,201.729L-576.355,240.447" fill="none" stroke-width="1.5" stroke="green" opacity="0.7"/><path d="M621.904,-56.88L532.002,-53.136C442.099,-49.391,262.294,-41.902,238.3,-99.415C214.306,-156.928,346.124,-279.444,412.033,-340.702L477.942,-401.959" fill="none" stroke-width="1.5" stroke="purple" opacity="0.7"/><path d="M623.698,-31.63L532.749,-20.935C441.799,-10.24,259.9,11.15,225.333,94.006C190.767,176.861,303.535,321.182,359.918,393.342L416.302,465.503" fill="none" stroke-width="1.5" stroke="purple" opacity="0.7"/><path d="M624.468,-6.329L529.143,2.396C433.818,11.12,243.167,28.568,151.716,132.938C60.264,237.307,68.011,428.598,71.885,524.243L75.758,619.888" fill="none" stroke-width="1.5" stroke="purple" opacity="0.7"/><path d="M624.211,18.983L533.953,11.032C443.695,3.081,263.178,-12.821,238.8,-82.978C214.422,-153.135,346.182,-277.547,412.062,-339.753L477.942,-401.959" fill="none" stroke-width="1.5" stroke="blue" opacity="0.7"/><path d="M624.211,18.983L534.765,19.914C445.319,20.845,266.428,22.706,252.881,70.974C239.334,119.242,391.132,213.915,467.031,261.252L542.93,308.589" fill="none" stroke-width="1.5" stroke="green" opacity="0.7"/><path d="M622.929,44.264L522.968,44.187C423.008,44.111,223.086,43.957,66.918,126.542C-89.249,209.127,-201.662,374.451,-257.869,457.113L-314.075,539.775" fill="none" stroke-width="1.5" stroke="green" opacity="0.7"/><path d="M620.624,69.473L530.919,53.738C441.213,38.003,261.803,6.533,238.023,-72.039C214.242,-150.611,346.092,-276.285,412.017,-339.122L477.942,-401.959" fill="none" stroke-width="1.5" stroke="blue" opacity="0.7"/><path d="M620.624,69.473L522.759,66.256C424.894,63.04,229.164,56.607,96.587,144.95C-35.99,233.292,-105.414,416.409,-140.126,507.968L-174.838,599.527" fill="none" stroke-width="1.5" stroke="green" opacity="0.7"/><path d="M617.298,94.567L528.106,74.963C438.913,55.36,260.528,16.153,237.302,-66.602C214.076,-149.356,346.009,-275.658,411.976,-338.808L477.942,-401.959" fill="none" stroke-width="1.5" stroke="blue" opacity="0.7"/><path d="M612.959,119.505L524.435,96.057C435.912,72.609,258.865,25.712,236.362,-61.198C213.859,-148.109,345.901,-275.034,411.922,-338.497L477.942,-401.959" fill="none" stroke-width="1.5" stroke="blue" opacity="0.7"/><path d="M607.612,144.248L519.913,116.985C432.214,89.722,256.815,35.197,235.204,-55.838C213.592,-146.872,345.767,-274.416,411.855,-338.187L477.942,-401.959" fill="none" stroke-width="1.5" stroke="blue" opacity="0.7"/><path d="M601.268,168.753L514.546,137.712C427.825,106.672,254.383,44.591,233.829,-50.528C213.275,-145.647,345.609,-273.803,411.775,-337.881L477.942,-401.959" fill="none" stroke-width="1.5" stroke="blue" opacity="0.7"/><path d="M601.268,168.753L501.101,140.476C400.934,112.198,200.6,55.643,0.768,-2.633C-199.064,-60.909,-398.394,-120.907,-498.059,-150.905L-597.724,-180.904" fill="none" stroke-width="1.5" stroke="green" opacity="0.7"/><path d="M593.935,192.981L508.344,158.205C422.753,123.43,251.572,53.878,232.24,-45.279C212.908,-144.435,345.425,-273.197,411.684,-337.578L477.942,-401.959" fill="none" stroke-width="1.5" stroke="blue" opacity="0.7"/><path d="M593.935,192.981L495.05,165.941C396.164,138.901,198.394,84.821,1.8,88.806C-194.793,92.791,-390.21,154.842,-487.918,185.867L-585.626,216.892" fill="none" stroke-width="1.5" stroke="green" opacity="0.7"/><path d="M585.626,216.892L501.316,178.43C417.007,139.968,248.387,63.044,230.44,-40.098C212.493,-143.24,345.218,-272.6,411.58,-337.279L477.942,-401.959" fill="none" stroke-width="1.5" stroke="blue" opacity="0.7"/><path d="M585.626,216.892L488.022,186.166C390.417,155.439,195.209,93.987,0,93.987C-195.209,93.987,-390.417,155.439,-488.022,186.166L-585.626,216.892" fill="none" stroke-width="1.5" stroke="green" opacity="0.7"/><path d="M576.355,240.447L492.585,197.455C408.815,154.463,241.275,68.479,213.013,-50.569C184.751,-169.618,295.767,-321.731,351.274,-397.788L406.782,-473.844" fill="none" stroke-width="1.5" stroke="blue" opacity="0.7"/><path d="M576.355,240.447L479.905,205.181C383.456,169.915,190.556,99.384,-6.772,83.35C-204.1,67.317,-405.856,105.782,-506.734,125.015L-607.612,144.248" fill="none" stroke-width="1.5" stroke="green" opacity="0.7"/><path d="M566.138,263.606L483.943,217.044C401.748,170.482,237.359,77.357,210.799,-45.552C184.24,-168.46,295.511,-321.152,351.147,-397.498L406.782,-473.844" fill="none" stroke-width="1.5" stroke="blue" opacity="0.7"/><path d="M566.138,263.606L474.529,216.471C382.921,169.335,199.705,75.065,47.632,-55.485C-104.44,-186.035,-225.368,-352.863,-285.832,-436.278L-346.296,-519.692" fill="none" stroke-width="1.5" stroke="green" opacity="0.7"/><path d="M554.99,286.333L475.403,237.165C395.817,187.998,236.643,89.663,223.802,-25.052C210.961,-139.768,344.452,-270.864,411.197,-336.411L477.942,-401.959" fill="none" stroke-width="1.5" stroke="blue" opacity="0.7"/><path d="M529.978,330.338L454.542,284.063C379.105,237.788,228.233,145.238,223.484,152.211C218.735,159.183,360.11,265.678,430.798,318.926L501.485,372.173" fill="none" stroke-width="1.5" stroke="blue" opacity="0.7"/><path d="M485.991,392.19L416.725,337.106C347.459,282.021,208.928,171.853,203.369,178.198C197.809,184.542,325.221,307.401,388.927,368.83L452.633,430.26" fill="none" stroke-width="1.5" stroke="blue" opacity="0.7"/><path d="M335.692,526.603L286.125,452.913C236.558,379.222,137.424,231.841,110.615,243.995C83.806,256.149,129.322,427.838,152.08,513.682L174.838,599.527" fill="none" stroke-width="1.5" stroke="purple" opacity="0.7"/><path d="M314.075,539.775L269.022,463.603C223.969,387.43,133.862,235.086,126.404,239.029C118.947,242.973,194.139,403.205,231.734,483.321L269.33,563.437" fill="none" stroke-width="1.5" stroke="purple" opacity="0.7"/><path d="M291.942,552.06L249.72,474.243C207.497,396.426,123.052,240.793,111.531,246.016C100.01,251.239,161.413,417.319,192.114,500.358L222.816,583.398" fill="none" stroke-width="1.5" stroke="blue" opacity="0.7"/><path d="M-50.575,622.449L-44.658,534.064C-38.741,445.68,-26.907,268.911,-43.544,266.19C-60.181,263.468,-105.29,434.794,-127.844,520.457L-150.398,606.119" fill="none" stroke-width="1.5" stroke="purple" opacity="0.7"/><path d="M-75.758,619.888L-61.294,531.614C-46.829,443.341,-17.9,266.794,31.862,260.712C81.625,254.63,152.22,419.014,187.518,501.206L222.816,583.398" fill="none" stroke-width="1.5" stroke="purple" opacity="0.7"/><path d="M-198.99,591.949L-174.581,505.342C-150.172,418.735,-101.354,245.522,-151.77,208.893C-202.186,172.264,-351.835,272.218,-426.66,322.196L-501.485,372.173" fill="none" stroke-width="1.5" stroke="green" opacity="0.7"/><path fill="none" stroke-width="1.5" stroke="purple" opacity="0.7"/><path d="M-246.275,573.889L-201.521,489.272C-156.767,404.655,-67.259,235.42,64.275,191.204C195.809,146.987,369.37,227.788,456.15,268.188L542.93,308.589" fill="none" stroke-width="1.5" stroke="green" opacity="0.7"/><path d="M-269.33,563.437L-230.296,483.973C-191.261,404.509,-113.193,245.582,-101.469,250.334C-89.746,255.086,-144.368,423.517,-171.679,507.733L-198.99,591.949" fill="none" stroke-width="1.5" stroke="blue" opacity="0.7"/><path d="M-291.942,552.06L-249.422,474.35C-206.902,396.64,-121.861,241.22,-106.369,247.868C-90.877,254.517,-144.933,423.233,-171.962,507.591L-198.99,591.949" fill="none" stroke-width="1.5" stroke="blue" opacity="0.7"/><path d="M-335.692,526.603L-290.726,449.276C-245.76,371.949,-155.828,217.294,-190.368,180.958C-224.908,144.623,-383.919,226.606,-463.425,267.597L-542.93,308.589" fill="none" stroke-width="1.5" stroke="green" opacity="0.7"/><path fill="none" stroke-width="1.5" stroke="purple" opacity="0.7"/><path d="M-377.236,497.688L-324.514,426.564C-271.792,355.44,-166.348,213.193,-175.946,204.953C-185.545,196.713,-310.185,322.482,-372.505,385.366L-434.825,448.25" fill="none" stroke-width="1.5" stroke="green" opacity="0.7"/><path d="M-397.095,481.991L-339.802,414.432C-282.509,346.872,-167.924,211.752,-154.087,221.383C-140.25,231.013,-227.163,385.394,-270.619,462.585L-314.075,539.775" fill="none" stroke-width="1.5" stroke="purple" opacity="0.7"/><path d="M-416.302,465.503L-356.318,400.32C-296.334,335.138,-176.367,204.773,-162.932,214.956C-149.497,225.14,-242.594,375.872,-289.143,451.238L-335.692,526.603" fill="none" stroke-width="1.5" stroke="blue" opacity="0.7"/><path d="M-593.935,192.981L-495.583,167.087C-397.232,141.193,-200.528,89.406,-11.051,108.674C178.426,127.941,360.678,218.265,451.804,263.427L542.93,308.589" fill="none" stroke-width="1.5" stroke="green" opacity="0.7"/><path d="M-617.298,94.567L-529.928,79.592C-442.557,64.618,-267.816,34.669,-268.883,13.636C-269.949,-7.397,-446.824,-19.514,-535.261,-25.572L-623.698,-31.63" fill="none" stroke-width="1.5" stroke="purple" opacity="0.7"/><path d="M-624.468,-6.329L-535.97,-6.064C-447.471,-5.799,-270.475,-5.27,-270.047,-13.695C-269.62,-22.12,-445.762,-39.5,-533.833,-48.19L-621.904,-56.88" fill="none" stroke-width="1.5" stroke="blue" opacity="0.7"/><path d="M-623.698,-31.63L-535.207,-25.26C-446.715,-18.89,-269.732,-6.15,-267.942,19.04C-266.153,44.229,-439.556,81.867,-526.257,100.686L-612.959,119.505" fill="none" stroke-width="1.5" stroke="blue" opacity="0.7"/><path d="M-619.088,-82.036L-531.419,-70.1C-443.75,-58.164,-268.412,-34.291,-268.882,-30.099C-269.351,-25.906,-445.628,-41.393,-533.766,-49.137L-621.904,-56.88" fill="none" stroke-width="1.5" stroke="blue" opacity="0.7"/><path fill="none" stroke-width="1.5" stroke="blue" opacity="0.7"/><path d="M-508.925,-361.933L-436.44,-311.16C-363.955,-260.386,-218.985,-158.839,-213.821,-165.51C-208.658,-172.181,-343.3,-287.07,-410.621,-344.515L-477.942,-401.959" fill="none" stroke-width="1.5" stroke="purple" opacity="0.7"/><path d="M-443.82,-439.345L-380.238,-377.737C-316.657,-316.129,-189.493,-192.913,-180.064,-201.345C-170.635,-209.778,-278.94,-349.859,-333.093,-419.9L-387.245,-489.94" fill="none" stroke-width="1.5" stroke="green" opacity="0.7"/><path d="M-425.651,-456.97L-366.893,-390.24C-308.135,-323.509,-190.62,-190.048,-211.19,-163.473C-231.76,-136.899,-390.417,-217.21,-469.745,-257.366L-549.073,-297.522" fill="none" stroke-width="1.5" stroke="blue" opacity="0.7"/><path d="M-425.651,-456.97L-364.87,-392.645C-304.09,-328.319,-182.528,-199.669,-176.127,-205.164C-169.727,-210.659,-278.486,-350.3,-332.865,-420.12L-387.245,-489.94" fill="none" stroke-width="1.5" stroke="green" opacity="0.7"/><path d="M-406.782,-473.844L-350.777,-404.788C-294.772,-335.731,-182.761,-197.617,-204.392,-171.898C-226.022,-146.178,-381.293,-232.854,-458.929,-276.191L-536.564,-319.529" fill="none" stroke-width="1.5" stroke="blue" opacity="0.7"/><path d="M-138.083,-609.043L-117.899,-522.877C-97.715,-436.71,-57.347,-264.378,-49.051,-265.908C-40.755,-267.438,-64.53,-442.832,-76.418,-530.528L-88.306,-618.225" fill="none" stroke-width="1.5" stroke="blue" opacity="0.7"/></g><g><text transform="&#xA;        rotate(-88.83870967741936)&#xA;        translate(632.5,0)&#xA;        &#xA;      " text-anchor="start">10</text><text transform="&#xA;        rotate(-86.51612903225806)&#xA;        translate(632.5,0)&#xA;        &#xA;      " text-anchor="start">11</text><text transform="&#xA;        rotate(-84.19354838709677)&#xA;        translate(632.5,0)&#xA;        &#xA;      " text-anchor="start">12</text><text transform="&#xA;        rotate(-81.87096774193549)&#xA;        translate(632.5,0)&#xA;        &#xA;      " text-anchor="start">13</text><text transform="&#xA;        rotate(-79.54838709677419)&#xA;        translate(632.5,0)&#xA;        &#xA;      " text-anchor="start">14</text><text transform="&#xA;        rotate(-77.2258064516129)&#xA;        translate(632.5,0)&#xA;        &#xA;      " text-anchor="start">20</text><text transform="&#xA;        rotate(-74.90322580645162)&#xA;        translate(632.5,0)&#xA;        &#xA;      " text-anchor="start">22</text><text transform="&#xA;        rotate(-72.58064516129032)&#xA;        translate(632.5,0)&#xA;        &#xA;      " text-anchor="start">23</text><text transform="&#xA;        rotate(-70.25806451612902)&#xA;        translate(632.5,0)&#xA;        &#xA;      " text-anchor="start">25</text><text transform="&#xA;        rotate(-67.93548387096774)&#xA;        translate(632.5,0)&#xA;        &#xA;      " text-anchor="start">26</text><text transform="&#xA;        rotate(-65.61290322580645)&#xA;        translate(632.5,0)&#xA;        &#xA;      " text-anchor="start">27</text><text transform="&#xA;        rotate(-63.29032258064517)&#xA;        translate(632.5,0)&#xA;        &#xA;      " text-anchor="start">28</text><text transform="&#xA;        rotate(-60.96774193548387)&#xA;        translate(632.5,0)&#xA;        &#xA;      " text-anchor="start">29</text><text transform="&#xA;        rotate(-58.64516129032258)&#xA;        translate(632.5,0)&#xA;        &#xA;      " text-anchor="start">30</text><text transform="&#xA;        rotate(-56.32258064516129)&#xA;        translate(632.5,0)&#xA;        &#xA;      " text-anchor="start">36</text><text transform="&#xA;        rotate(-54)&#xA;        translate(632.5,0)&#xA;        &#xA;      " text-anchor="start">37</text><text transform="&#xA;        rotate(-51.67741935483871)&#xA;        translate(632.5,0)&#xA;        &#xA;      " text-anchor="start">38</text><text transform="&#xA;        rotate(-49.35483870967742)&#xA;        translate(632.5,0)&#xA;        &#xA;      " text-anchor="start">40</text><text transform="&#xA;        rotate(-47.03225806451613)&#xA;        translate(632.5,0)&#xA;        &#xA;      " text-anchor="start">50</text><text transform="&#xA;        rotate(-44.70967741935484)&#xA;        translate(632.5,0)&#xA;        &#xA;      " text-anchor="start">60</text><text transform="&#xA;        rotate(-42.387096774193544)&#xA;        translate(632.5,0)&#xA;        &#xA;      " text-anchor="start">70</text><text transform="&#xA;        rotate(-40.06451612903226)&#xA;        translate(632.5,0)&#xA;        &#xA;      " text-anchor="start">100</text><text transform="&#xA;        rotate(-37.74193548387096)&#xA;        translate(632.5,0)&#xA;        &#xA;      " text-anchor="start">101</text><text transform="&#xA;        rotate(-35.41935483870968)&#xA;        translate(632.5,0)&#xA;        &#xA;      " text-anchor="start">102</text><text transform="&#xA;        rotate(-33.09677419354839)&#xA;        translate(632.5,0)&#xA;        &#xA;      " text-anchor="start">103</text><text transform="&#xA;        rotate(-30.774193548387096)&#xA;        translate(632.5,0)&#xA;        &#xA;      " text-anchor="start">104</text><text transform="&#xA;        rotate(-28.451612903225808)&#xA;        translate(632.5,0)&#xA;        &#xA;      " text-anchor="start">105</text><text transform="&#xA;        rotate(-26.129032258064512)&#xA;        translate(632.5,0)&#xA;        &#xA;      " text-anchor="start">110</text><text transform="&#xA;        rotate(-23.80645161290323)&#xA;        translate(632.5,0)&#xA;        &#xA;      " text-anchor="start">120</text><text transform="&#xA;        rotate(-21.483870967741936)&#xA;        translate(632.5,0)&#xA;        &#xA;      " text-anchor="start">130</text><text transform="&#xA;        rotate(-19.16129032258064)&#xA;        translate(632.5,0)&#xA;        &#xA;      " text-anchor="start">140</text><text transform="&#xA;        rotate(-16.83870967741936)&#xA;        translate(632.5,0)&#xA;        &#xA;      " text-anchor="start">145</text><text transform="&#xA;        rotate(-14.516129032258064)&#xA;        translate(632.5,0)&#xA;        &#xA;      " text-anchor="start">150</text><text transform="&#xA;        rotate(-12.193548387096769)&#xA;        translate(632.5,0)&#xA;        &#xA;      " text-anchor="start">160</text><text transform="&#xA;        rotate(-9.870967741935473)&#xA;        translate(632.5,0)&#xA;        &#xA;      " text-anchor="start">170</text><text transform="&#xA;        rotate(-7.548387096774192)&#xA;        translate(632.5,0)&#xA;        &#xA;      " text-anchor="start">172</text><text transform="&#xA;        rotate(-5.225806451612911)&#xA;        translate(632.5,0)&#xA;        &#xA;      " text-anchor="start">180</text><text transform="&#xA;        rotate(-2.9032258064516157)&#xA;        translate(632.5,0)&#xA;        &#xA;      " text-anchor="start">200</text><text transform="&#xA;        rotate(-0.5806451612903203)&#xA;        translate(632.5,0)&#xA;        &#xA;      " text-anchor="start">210</text><text transform="&#xA;        rotate(1.7419354838709609)&#xA;        translate(632.5,0)&#xA;        &#xA;      " text-anchor="start">212</text><text transform="&#xA;        rotate(4.064516129032256)&#xA;        translate(632.5,0)&#xA;        &#xA;      " text-anchor="start">215</text><text transform="&#xA;        rotate(6.387096774193552)&#xA;        translate(632.5,0)&#xA;        &#xA;      " text-anchor="start">220</text><text transform="&#xA;        rotate(8.709677419354833)&#xA;        translate(632.5,0)&#xA;        &#xA;      " text-anchor="start">230</text><text transform="&#xA;        rotate(11.032258064516128)&#xA;        translate(632.5,0)&#xA;        &#xA;      " text-anchor="start">240</text><text transform="&#xA;        rotate(13.354838709677423)&#xA;        translate(632.5,0)&#xA;        &#xA;      " text-anchor="start">250</text><text transform="&#xA;        rotate(15.677419354838705)&#xA;        translate(632.5,0)&#xA;        &#xA;      " text-anchor="start">255</text><text transform="&#xA;        rotate(18)&#xA;        translate(632.5,0)&#xA;        &#xA;      " text-anchor="start">260</text><text transform="&#xA;        rotate(20.322580645161295)&#xA;        translate(632.5,0)&#xA;        &#xA;      " text-anchor="start">270</text><text transform="&#xA;        rotate(22.64516129032259)&#xA;        translate(632.5,0)&#xA;        &#xA;      " text-anchor="start">280</text><text transform="&#xA;        rotate(24.967741935483872)&#xA;        translate(632.5,0)&#xA;        &#xA;      " text-anchor="start">290</text><text transform="&#xA;        rotate(27.290322580645167)&#xA;        translate(632.5,0)&#xA;        &#xA;      " text-anchor="start">300</text><text transform="&#xA;        rotate(29.612903225806463)&#xA;        translate(632.5,0)&#xA;        &#xA;      " text-anchor="start">1000</text><text transform="&#xA;        rotate(31.93548387096773)&#xA;        translate(632.5,0)&#xA;        &#xA;      " text-anchor="start">1005</text><text transform="&#xA;        rotate(34.258064516129025)&#xA;        translate(632.5,0)&#xA;        &#xA;      " text-anchor="start">1010</text><text transform="&#xA;        rotate(36.58064516129032)&#xA;        translate(632.5,0)&#xA;        &#xA;      " text-anchor="start">1020</text><text transform="&#xA;        rotate(38.903225806451616)&#xA;        translate(632.5,0)&#xA;        &#xA;      " text-anchor="start">1030</text><text transform="&#xA;        rotate(41.2258064516129)&#xA;        translate(632.5,0)&#xA;        &#xA;      " text-anchor="start">1040</text><text transform="&#xA;        rotate(43.548387096774206)&#xA;        translate(632.5,0)&#xA;        &#xA;      " text-anchor="start">1050</text><text transform="&#xA;        rotate(45.87096774193549)&#xA;        translate(632.5,0)&#xA;        &#xA;      " text-anchor="start">1060</text><text transform="&#xA;        rotate(48.19354838709677)&#xA;        translate(632.5,0)&#xA;        &#xA;      " text-anchor="start">2000</text><text transform="&#xA;        rotate(50.51612903225805)&#xA;        translate(632.5,0)&#xA;        &#xA;      " text-anchor="start">2001</text><text transform="&#xA;        rotate(52.83870967741936)&#xA;        translate(632.5,0)&#xA;        &#xA;      " text-anchor="start">2002</text><text transform="&#xA;        rotate(55.16129032258064)&#xA;        translate(632.5,0)&#xA;        &#xA;      " text-anchor="start">2005</text><text transform="&#xA;        rotate(57.48387096774192)&#xA;        translate(632.5,0)&#xA;        &#xA;      " text-anchor="start">2015</text><text transform="&#xA;        rotate(59.80645161290323)&#xA;        translate(632.5,0)&#xA;        &#xA;      " text-anchor="start">2016</text><text transform="&#xA;        rotate(62.12903225806451)&#xA;        translate(632.5,0)&#xA;        &#xA;      " text-anchor="start">2017</text><text transform="&#xA;        rotate(64.4516129032258)&#xA;        translate(632.5,0)&#xA;        &#xA;      " text-anchor="start">2019</text><text transform="&#xA;        rotate(66.7741935483871)&#xA;        translate(632.5,0)&#xA;        &#xA;      " text-anchor="start">2020</text><text transform="&#xA;        rotate(69.09677419354838)&#xA;        translate(632.5,0)&#xA;        &#xA;      " text-anchor="start">2030</text><text transform="&#xA;        rotate(71.41935483870967)&#xA;        translate(632.5,0)&#xA;        &#xA;      " text-anchor="start">2040</text><text transform="&#xA;        rotate(73.74193548387098)&#xA;        translate(632.5,0)&#xA;        &#xA;      " text-anchor="start">2049</text><text transform="&#xA;        rotate(76.06451612903226)&#xA;        translate(632.5,0)&#xA;        &#xA;      " text-anchor="start">2050</text><text transform="&#xA;        rotate(78.38709677419354)&#xA;        translate(632.5,0)&#xA;        &#xA;      " text-anchor="start">2060</text><text transform="&#xA;        rotate(80.70967741935485)&#xA;        translate(632.5,0)&#xA;        &#xA;      " text-anchor="start">2070</text><text transform="&#xA;        rotate(83.03225806451613)&#xA;        translate(632.5,0)&#xA;        &#xA;      " text-anchor="start">3000</text><text transform="&#xA;        rotate(85.35483870967744)&#xA;        translate(632.5,0)&#xA;        &#xA;      " text-anchor="start">3001</text><text transform="&#xA;        rotate(87.67741935483869)&#xA;        translate(632.5,0)&#xA;        &#xA;      " text-anchor="start">3002</text><text transform="&#xA;        rotate(90)&#xA;        translate(632.5,0)&#xA;        rotate(180)&#xA;      " text-anchor="end">3005</text><text transform="&#xA;        rotate(92.32258064516131)&#xA;        translate(632.5,0)&#xA;        rotate(180)&#xA;      " text-anchor="end">3010</text><text transform="&#xA;        rotate(94.64516129032259)&#xA;        translate(632.5,0)&#xA;        rotate(180)&#xA;      " text-anchor="end">3015</text><text transform="&#xA;        rotate(96.9677419354839)&#xA;        translate(632.5,0)&#xA;        rotate(180)&#xA;      " text-anchor="end">3016</text><text transform="&#xA;        rotate(99.29032258064515)&#xA;        translate(632.5,0)&#xA;        rotate(180)&#xA;      " text-anchor="end">3020</text><text transform="&#xA;        rotate(101.61290322580643)&#xA;        translate(632.5,0)&#xA;        rotate(180)&#xA;      " text-anchor="end">3030</text><text transform="&#xA;        rotate(103.93548387096774)&#xA;        translate(632.5,0)&#xA;        rotate(180)&#xA;      " text-anchor="end">3040</text><text transform="&#xA;        rotate(106.25806451612902)&#xA;        translate(632.5,0)&#xA;        rotate(180)&#xA;      " text-anchor="end">4000</text><text transform="&#xA;        rotate(108.58064516129033)&#xA;        translate(632.5,0)&#xA;        rotate(180)&#xA;      " text-anchor="end">4005</text><text transform="&#xA;        rotate(110.90322580645162)&#xA;        translate(632.5,0)&#xA;        rotate(180)&#xA;      " text-anchor="end">4010</text><text transform="&#xA;        rotate(113.22580645161293)&#xA;        translate(632.5,0)&#xA;        rotate(180)&#xA;      " text-anchor="end">4020</text><text transform="&#xA;        rotate(115.54838709677418)&#xA;        translate(632.5,0)&#xA;        rotate(180)&#xA;      " text-anchor="end">4030</text><text transform="&#xA;        rotate(117.87096774193549)&#xA;        translate(632.5,0)&#xA;        rotate(180)&#xA;      " text-anchor="end">4040</text><text transform="&#xA;        rotate(120.19354838709677)&#xA;        translate(632.5,0)&#xA;        rotate(180)&#xA;      " text-anchor="end">4500</text><text transform="&#xA;        rotate(122.51612903225808)&#xA;        translate(632.5,0)&#xA;        rotate(180)&#xA;      " text-anchor="end">4505</text><text transform="&#xA;        rotate(124.83870967741936)&#xA;        translate(632.5,0)&#xA;        rotate(180)&#xA;      " text-anchor="end">4510</text><text transform="&#xA;        rotate(127.16129032258067)&#xA;        translate(632.5,0)&#xA;        rotate(180)&#xA;      " text-anchor="end">4520</text><text transform="&#xA;        rotate(129.48387096774192)&#xA;        translate(632.5,0)&#xA;        rotate(180)&#xA;      " text-anchor="end">4530</text><text transform="&#xA;        rotate(131.8064516129032)&#xA;        translate(632.5,0)&#xA;        rotate(180)&#xA;      " text-anchor="end">4540</text><text transform="&#xA;        rotate(134.1290322580645)&#xA;        translate(632.5,0)&#xA;        rotate(180)&#xA;      " text-anchor="end">4600</text><text transform="&#xA;        rotate(136.4516129032258)&#xA;        translate(632.5,0)&#xA;        rotate(180)&#xA;      " text-anchor="end">4610</text><text transform="&#xA;        rotate(138.7741935483871)&#xA;        translate(632.5,0)&#xA;        rotate(180)&#xA;      " text-anchor="end">4620</text><text transform="&#xA;        rotate(141.09677419354838)&#xA;        translate(632.5,0)&#xA;        rotate(180)&#xA;      " text-anchor="end">4630</text><text transform="&#xA;        rotate(143.4193548387097)&#xA;        translate(632.5,0)&#xA;        rotate(180)&#xA;      " text-anchor="end">5000</text><text transform="&#xA;        rotate(145.74193548387095)&#xA;        translate(632.5,0)&#xA;        rotate(180)&#xA;      " text-anchor="end">5005</text><text transform="&#xA;        rotate(148.06451612903226)&#xA;        translate(632.5,0)&#xA;        rotate(180)&#xA;      " text-anchor="end">5010</text><text transform="&#xA;        rotate(150.38709677419354)&#xA;        translate(632.5,0)&#xA;        rotate(180)&#xA;      " text-anchor="end">6000</text><text transform="&#xA;        rotate(152.70967741935485)&#xA;        translate(632.5,0)&#xA;        rotate(180)&#xA;      " text-anchor="end">6005</text><text transform="&#xA;        rotate(155.03225806451613)&#xA;        translate(632.5,0)&#xA;        rotate(180)&#xA;      " text-anchor="end">6010</text><text transform="&#xA;        rotate(157.35483870967744)&#xA;        translate(632.5,0)&#xA;        rotate(180)&#xA;      " text-anchor="end">7000</text><text transform="&#xA;        rotate(159.67741935483872)&#xA;        translate(632.5,0)&#xA;        rotate(180)&#xA;      " text-anchor="end">8000</text><text transform="&#xA;        rotate(161.99999999999997)&#xA;        translate(632.5,0)&#xA;        rotate(180)&#xA;      " text-anchor="end">8010</text><text transform="&#xA;        rotate(164.32258064516128)&#xA;        translate(632.5,0)&#xA;        rotate(180)&#xA;      " text-anchor="end">8020</text><text transform="&#xA;        rotate(166.64516129032256)&#xA;        translate(632.5,0)&#xA;        rotate(180)&#xA;      " text-anchor="end">9000</text><text transform="&#xA;        rotate(168.9677419354839)&#xA;        translate(632.5,0)&#xA;        rotate(180)&#xA;      " text-anchor="end">9010</text><text transform="&#xA;        rotate(171.29032258064518)&#xA;        translate(632.5,0)&#xA;        rotate(180)&#xA;      " text-anchor="end">9015</text><text transform="&#xA;        rotate(173.61290322580646)&#xA;        translate(632.5,0)&#xA;        rotate(180)&#xA;      " text-anchor="end">9020</text><text transform="&#xA;        rotate(175.93548387096774)&#xA;        translate(632.5,0)&#xA;        rotate(180)&#xA;      " text-anchor="end">9021</text><text transform="&#xA;        rotate(178.25806451612902)&#xA;        translate(632.5,0)&#xA;        rotate(180)&#xA;      " text-anchor="end">9025</text><text transform="&#xA;        rotate(180.5806451612903)&#xA;        translate(632.5,0)&#xA;        rotate(180)&#xA;      " text-anchor="end">9026</text><text transform="&#xA;        rotate(182.9032258064516)&#xA;        translate(632.5,0)&#xA;        rotate(180)&#xA;      " text-anchor="end">9030</text><text transform="&#xA;        rotate(185.22580645161293)&#xA;        translate(632.5,0)&#xA;        rotate(180)&#xA;      " text-anchor="end">9040</text><text transform="&#xA;        rotate(187.5483870967742)&#xA;        translate(632.5,0)&#xA;        rotate(180)&#xA;      " text-anchor="end">9045</text><text transform="&#xA;        rotate(189.8709677419355)&#xA;        translate(632.5,0)&#xA;        rotate(180)&#xA;      " text-anchor="end">9050</text><text transform="&#xA;        rotate(192.19354838709677)&#xA;        translate(632.5,0)&#xA;        rotate(180)&#xA;      " text-anchor="end">9060</text><text transform="&#xA;        rotate(194.51612903225805)&#xA;        translate(632.5,0)&#xA;        rotate(180)&#xA;      " text-anchor="end">9070</text><text transform="&#xA;        rotate(196.83870967741933)&#xA;        translate(632.5,0)&#xA;        rotate(180)&#xA;      " text-anchor="end">9500</text><text transform="&#xA;        rotate(199.16129032258067)&#xA;        translate(632.5,0)&#xA;        rotate(180)&#xA;      " text-anchor="end">9502</text><text transform="&#xA;        rotate(201.48387096774195)&#xA;        translate(632.5,0)&#xA;        rotate(180)&#xA;      " text-anchor="end">9505</text><text transform="&#xA;        rotate(203.80645161290323)&#xA;        translate(632.5,0)&#xA;        rotate(180)&#xA;      " text-anchor="end">9510</text><text transform="&#xA;        rotate(206.1290322580645)&#xA;        translate(632.5,0)&#xA;        rotate(180)&#xA;      " text-anchor="end">9515</text><text transform="&#xA;        rotate(208.4516129032258)&#xA;        translate(632.5,0)&#xA;        rotate(180)&#xA;      " text-anchor="end">9520</text><text transform="&#xA;        rotate(210.77419354838707)&#xA;        translate(632.5,0)&#xA;        rotate(180)&#xA;      " text-anchor="end">9530</text><text transform="&#xA;        rotate(213.09677419354836)&#xA;        translate(632.5,0)&#xA;        rotate(180)&#xA;      " text-anchor="end">9540</text><text transform="&#xA;        rotate(215.4193548387097)&#xA;        translate(632.5,0)&#xA;        rotate(180)&#xA;      " text-anchor="end">9550</text><text transform="&#xA;        rotate(217.74193548387098)&#xA;        translate(632.5,0)&#xA;        rotate(180)&#xA;      " text-anchor="end">9555</text><text transform="&#xA;        rotate(220.06451612903226)&#xA;        translate(632.5,0)&#xA;        rotate(180)&#xA;      " text-anchor="end">9560</text><text transform="&#xA;        rotate(222.3870967741936)&#xA;        translate(632.5,0)&#xA;        rotate(180)&#xA;      " text-anchor="end">9570</text><text transform="&#xA;        rotate(224.70967741935482)&#xA;        translate(632.5,0)&#xA;        rotate(180)&#xA;      " text-anchor="end">9580</text><text transform="&#xA;        rotate(227.0322580645161)&#xA;        translate(632.5,0)&#xA;        rotate(180)&#xA;      " text-anchor="end">9585</text><text transform="&#xA;        rotate(229.35483870967744)&#xA;        translate(632.5,0)&#xA;        rotate(180)&#xA;      " text-anchor="end">9590</text><text transform="&#xA;        rotate(231.67741935483872)&#xA;        translate(632.5,0)&#xA;        rotate(180)&#xA;      " text-anchor="end">9600</text><text transform="&#xA;        rotate(234)&#xA;        translate(632.5,0)&#xA;        rotate(180)&#xA;      " text-anchor="end">9610</text><text transform="&#xA;        rotate(236.32258064516128)&#xA;        translate(632.5,0)&#xA;        rotate(180)&#xA;      " text-anchor="end">10000</text><text transform="&#xA;        rotate(238.64516129032262)&#xA;        translate(632.5,0)&#xA;        rotate(180)&#xA;      " text-anchor="end">10005</text><text transform="&#xA;        rotate(240.96774193548384)&#xA;        translate(632.5,0)&#xA;        rotate(180)&#xA;      " text-anchor="end">10010</text><text transform="&#xA;        rotate(243.29032258064512)&#xA;        translate(632.5,0)&#xA;        rotate(180)&#xA;      " text-anchor="end">10015</text><text transform="&#xA;        rotate(245.61290322580646)&#xA;        translate(632.5,0)&#xA;        rotate(180)&#xA;      " text-anchor="end">10020</text><text transform="&#xA;        rotate(247.93548387096774)&#xA;        translate(632.5,0)&#xA;        rotate(180)&#xA;      " text-anchor="end">10025</text><text transform="&#xA;        rotate(250.25806451612902)&#xA;        translate(632.5,0)&#xA;        rotate(180)&#xA;      " text-anchor="end">10030</text><text transform="&#xA;        rotate(252.58064516129036)&#xA;        translate(632.5,0)&#xA;        rotate(180)&#xA;      " text-anchor="end">10040</text><text transform="&#xA;        rotate(254.9032258064516)&#xA;        translate(632.5,0)&#xA;        rotate(180)&#xA;      " text-anchor="end">10050</text><text transform="&#xA;        rotate(257.22580645161287)&#xA;        translate(632.5,0)&#xA;        rotate(180)&#xA;      " text-anchor="end">10060</text><text transform="&#xA;        rotate(259.5483870967742)&#xA;        translate(632.5,0)&#xA;        rotate(180)&#xA;      " text-anchor="end">10070</text><text transform="&#xA;        rotate(261.8709677419355)&#xA;        translate(632.5,0)&#xA;        rotate(180)&#xA;      " text-anchor="end">10080</text><text transform="&#xA;        rotate(264.19354838709677)&#xA;        translate(632.5,0)&#xA;        rotate(180)&#xA;      " text-anchor="end">10085</text><text transform="&#xA;        rotate(266.51612903225805)&#xA;        translate(632.5,0)&#xA;        rotate(180)&#xA;      " text-anchor="end">10090</text><text transform="&#xA;        rotate(268.8387096774194)&#xA;        translate(632.5,0)&#xA;        rotate(180)&#xA;      " text-anchor="end">10100</text></g></svg>